#N canvas 761 0 784 777 10;
#X obj 1464 -95 tgl 15 1 empty empty ON/OFF 17 7 0 10 #fcfcfc #000000
#000000 1 1;
#X obj 1464 -70 send ON;
#X obj 480 -428 loadbang;
#X msg 481 -342 60000;
#X obj 608 -441 loadbang;
#X floatatom 606 -324 5 0 0 0 - - -, f 5;
#X obj 559 -282 bng 15 250 50 0 empty empty empty 17 7 0 10 #fcfcfc
#000000 #000000;
#X floatatom 558 -198 5 0 0 0 - - -, f 5;
#X obj 558 -154 send 4th_time;
#X text 554 -472 BPM;
#X obj 1045 -431 sel 0;
#X obj 1048 -381 bng 15 250 50 0 empty empty empty 17 7 0 10 #fcfcfc
#000000 #000000;
#X obj 944 -475 loadbang;
#X text 963 -417 Reset;
#X msg 1048 -346 -1;
#X obj 1173 -323 bng 15 250 50 0 empty empty empty 17 7 0 10 #fcfcfc
#000000 #000000;
#X obj 1170 -287 int 1;
#X floatatom 1173 -247 5 0 0 0 - - -, f 5;
#X obj 1272 -282 + 1;
#X obj 1175 -219 % 2;
#X obj 1175 -197 + 1;
#X obj 1175 -162 sel 1;
#X obj 1175 -126 bng 15 250 50 0 empty empty empty 17 7 0 10 #fcfcfc
#000000 #000000;
#X obj 996 -161 sel 0;
#X obj 1073 -155 loadbang;
#X msg 1082 -119 1;
#X obj 1173 -78 tgl 15 0 empty empty empty 17 7 0 10 #fcfcfc #000000
#000000 1 1;
#X obj 1042 -475 receive ON;
#X obj 1169 -361 receive whole_note;
#X obj 989 -205 receive ON;
#X obj 1175 -33 send Chord;
#X text 1100 -514 Clock Sequencer;
#X obj 372 -17 * 4;
#X floatatom 373 27 5 0 0 0 - - -, f 5;
#X obj 288 77 metro;
#X obj 371 80 send whole_time;
#X obj 288 134 bng 15 250 50 0 empty empty empty 17 7 0 10 #fcfcfc
#000000 #000000;
#X obj 288 157 send whole_note;
#X floatatom 673 36 5 0 0 0 - - -, f 5;
#X obj 588 86 metro;
#X obj 671 89 send whole_time;
#X obj 588 143 bng 15 250 50 0 empty empty empty 17 7 0 10 #fcfcfc
#000000 #000000;
#X obj 588 166 send 4th_note;
#X obj 672 -8 * 1;
#X obj 195 -32 receive ON;
#X obj 347 -84 receive 4th_time;
#X obj 472 -28 receive ON;
#X obj 662 -88 receive 4th_time;
#X text 479 -103 Clock Multiplication;
#X obj 290 225 r Chord;
#X obj 290 262 tgl 15 0 empty empty empty 17 7 0 10 #fcfcfc #000000
#000000 1 1;
#X obj 290 285 sel 0;
#X obj 290 324 bng 14 250 50 0 empty empty empty 17 7 0 10 #fcfcfc
#000000 #000000;
#X obj 318 325 bng 15 250 50 0 empty empty empty 17 7 0 10 #fcfcfc
#000000 #000000;
#X msg 292 379 130.81;
#X msg 376 378 87.31;
#X text 386 355 F;
#X text 304 359 C;
#X floatatom 321 424 5 0 0 0 - - -, f 5;
#X obj 321 454 phasor~;
#X obj 323 490 lop~ 100;
#X obj 325 531 *~;
#X obj 325 565 send~ Bass;
#X obj 606 352 sel 1;
#X obj 606 303 receive ON;
#X obj 606 402 bng 15 250 50 0 empty empty empty 17 7 0 10 #fcfcfc
#000000 #000000;
#X msg 606 443 1 500;
#X obj 606 506 line;
#X msg 682 474 0 100;
#X obj 681 432 delay;
#X obj 790 300 receive whole_time;
#X obj 791 329 * 2;
#X floatatom 790 372 5 0 0 0 - - -, f 5;
#X obj 790 396 - 100;
#X obj 868 358 receive ON;
#X obj 870 393 sel 0;
#X obj 862 434 delay 5;
#X text 458 214 Bass;
#X obj 1047 152 r whole_note;
#X obj 1047 186 bng 15 250 50 0 empty empty empty 17 7 0 10 #fcfcfc
#000000 #000000;
#X floatatom 1140 265 5 0 0 0 - - -, f 5;
#X obj 1141 336 phasor~;
#X obj 1139 367 lop~ 100;
#X obj 1140 397 *~;
#X obj 1140 438 *~ 0.5;
#X obj 1227 336 phasor~;
#X obj 1227 277 * 1.001;
#X floatatom 1227 302 5 0 0 0 - - -, f 5;
#X obj 1297 203 bng 15 250 50 0 empty empty empty 17 7 0 10 #fcfcfc
#000000 #000000;
#X obj 1373 247 delay;
#X msg 1303 285 1 500;
#X obj 1303 360 line;
#X msg 1404 297 0 500, f 6;
#X obj 1477 247 delay 5;
#X obj 1387 140 receive whole_time;
#X floatatom 1389 172 5 0 0 0 - - -, f 5;
#X obj 1389 196 - 500;
#X obj 1481 180 receive ON;
#X obj 1481 215 sel 0;
#X obj 1139 481 send~ Ambient_Pad;
#N canvas 64 208 434 319 Chords_Scales 0;
#X obj 180 18 inlet;
#X obj 180 43 bng 15 250 50 0 empty empty empty 17 7 0 10 #fcfcfc #000000
#000000;
#X obj 180 66 random 8;
#X floatatom 180 91 5 0 0 0 - - -, f 5;
#X obj 37 136 sel 0;
#X obj 368 138 sel 7;
#X obj 320 138 sel 6;
#X obj 272 136 sel 5;
#X obj 221 137 sel 4;
#X obj 179 137 sel 3;
#X obj 133 137 sel 2;
#X obj 86 135 sel 1;
#X msg 36 182 60;
#X msg 85 184 62;
#X msg 134 183 64;
#X msg 179 184 65;
#X msg 220 186 67;
#X msg 272 188 69;
#X msg 320 185 71;
#X msg 368 186 72;
#X text 45 156 C;
#X text 102 158 D;
#X text 145 160 E;
#X text 192 161 F;
#X text 232 160 G;
#X text 280 161 A;
#X text 330 164 B;
#X text 378 162 C;
#X floatatom 196 226 5 0 0 0 - - -, f 5;
#X obj 192 263 mtof;
#X text 248 268 < Converting MIDI Note to Frequencey;
#X floatatom 192 288 5 0 0 0 - - -, f 5;
#X obj 192 312 outlet;
#X connect 0 0 1 0;
#X connect 1 0 2 0;
#X connect 2 0 3 0;
#X connect 3 0 4 0;
#X connect 3 0 11 0;
#X connect 3 0 10 0;
#X connect 3 0 9 0;
#X connect 3 0 8 0;
#X connect 3 0 7 0;
#X connect 3 0 6 0;
#X connect 3 0 5 0;
#X connect 4 0 12 0;
#X connect 5 0 19 0;
#X connect 6 0 18 0;
#X connect 7 0 17 0;
#X connect 8 0 16 0;
#X connect 9 0 15 0;
#X connect 10 0 14 0;
#X connect 11 0 13 0;
#X connect 12 0 28 0;
#X connect 13 0 28 0;
#X connect 14 0 28 0;
#X connect 15 0 28 0;
#X connect 16 0 28 0;
#X connect 17 0 28 0;
#X connect 18 0 28 0;
#X connect 19 0 28 0;
#X connect 28 0 29 0;
#X connect 29 0 31 0;
#X connect 31 0 32 0;
#X restore 1049 216 pd Chords_Scales;
#X text 1187 99 Ambient Pad Melody;
#X obj 558 -231 /;
#X obj 1270 536 receive~ Bass;
#X obj 1405 413 receive~ Ambient_Pad;
#X obj 1607 662 freeverb~;
#X obj 1795 506 loadbang;
#X obj 1868 508 loadbang;
#X obj 1949 508 loadbang;
#X msg 1795 541 1;
#X msg 1868 542 0.5;
#X msg 1951 547 0.95;
#X msg 1795 584 wet \$1;
#X msg 1868 582 dry \$1;
#X msg 1951 582 roomsize \$1;
#X obj 1405 625 *~ 0.5;
#X obj 1471 625 *~ 0.5;
#X obj 568 -434 tgl 15 1 empty empty empty 17 7 0 10 #fcfcfc #000000
#000000 1 1;
#X msg 608 -375 100;
#X obj 1745 442 tgl 15 1 empty empty empty 17 7 0 10 #fcfcfc #000000
#000000 1 1;
#X obj 1758 559 bng 15 250 50 0 empty empty empty 17 7 0 10 #fcfcfc
#000000 #000000;
#X obj 1864 473 bng 15 250 50 0 empty empty empty 17 7 0 10 #fcfcfc
#000000 #000000;
#X obj 1732 526 delay 500;
#X obj 1795 474 delay 1000;
#N canvas 0 0 1538 770 AllPassFilter 0;
#X obj 473 386 allpass~ 100 4 0.7 0, f 22;
#X floatatom 535 340 5 0 0 0 - - -, f 5;
#X floatatom 603 323 5 0 0 0 - - -, f 5;
#X obj 603 347 / 100;
#X text 688 273 Gain;
#X text 537 262 Delay;
#X text 509 176 AllPass filter;
#X obj 475 283 inlet~;
#X obj 472 545 outlet~;
#X obj 539 287 inlet;
#X obj 684 291 inlet;
#X connect 0 0 8 0;
#X connect 1 0 0 1;
#X connect 2 0 3 0;
#X connect 3 0 0 2;
#X connect 7 0 0 0;
#X connect 9 0 1 0;
#X connect 10 0 2 0;
#X restore 1794 137 pd AllPassFilter;
#X floatatom 1686 -85 5 0 0 0 - - -, f 5;
#X obj 1586 -214 vsl 15 128 0 50 0 1 empty empty empty 0 -9 0 10 #fcfcfc
#000000 #000000 2100 1;
#X floatatom 1852 -85 5 0 0 0 - - -, f 5;
#X obj 1752 -214 vsl 15 128 0 50 0 1 empty empty empty 0 -9 0 10 #fcfcfc
#000000 #000000 4700 1;
#X floatatom 2026 -85 5 0 0 0 - - -, f 5;
#X obj 1962 -213 vsl 15 128 0 50 0 1 empty empty empty 0 -9 0 10 #fcfcfc
#000000 #000000 6900 1;
#X floatatom 2219 -82 5 0 0 0 - - -, f 5;
#X obj 2156 -217 vsl 15 128 0 50 0 1 empty empty empty 0 -9 0 10 #fcfcfc
#000000 #000000 8800 1;
#X obj 2187 60 hsl 128 15 0 127 0 1 empty empty empty -2 -8 0 10 #fcfcfc
#000000 #000000 4700 1;
#X obj 2186 120 hsl 128 15 0 100 0 1 empty empty empty -2 -8 0 10 #fcfcfc
#000000 #000000 5500 1;
#X text 2234 39 Delay;
#X text 2237 100 Gain;
#N canvas 0 0 1538 795 AllPassFilter 0;
#X obj 708 480 metro 100;
#X obj 708 445 tgl 15 0 empty empty Graph\ output 17 7 0 10 #fcfcfc
#000000 #000000 0 1;
#N canvas 0 0 450 300 (subpatch) 0;
#X array alp 100 float 3 black black;
#A 0 0 0 0 0 0 0 0 0 0 0 0 0 0 0 0 0 0 0 0 0 0 0 0 0 0 0 0 0 0 0 0
0 0 0 0 0 0 0 0 0 0 0 0 0 0 0 0 0 0 0 0 0 0 0 0 0 0 0 0 0 0 0 0 0 0
0 0 0 0 0 0 0 0 0 0 0 0 0 0 0 0 0 0 0 0 0 0 0 0 0 0 0 0 0 0 0 0 0 0
0;
#X coords 0 1 100 -1 200 140 1;
#X restore 822 384 graph;
#X obj 658 514 tabwrite~ alp;
#X obj 473 386 allpass~ 100 4 0.7 0, f 22;
#X floatatom 535 340 5 0 0 0 - - -, f 5;
#X floatatom 603 323 5 0 0 0 - - -, f 5;
#X obj 603 347 / 100;
#X text 688 273 Gain;
#X text 537 262 Delay;
#X text 509 176 AllPass filter;
#X obj 475 283 inlet~;
#X obj 472 545 outlet~;
#X obj 539 287 inlet;
#X obj 684 291 inlet;
#X connect 0 0 3 0;
#X connect 1 0 0 0;
#X connect 4 0 3 0;
#X connect 4 0 12 0;
#X connect 5 0 4 1;
#X connect 6 0 7 0;
#X connect 7 0 4 2;
#X connect 11 0 4 0;
#X connect 13 0 5 0;
#X connect 14 0 6 0;
#X restore 1795 278 pd AllPassFilter;
#X obj 2184 196 hsl 128 15 0 127 0 1 empty empty empty -2 -8 0 10 #fcfcfc
#000000 #000000 6400 1;
#X obj 2188 274 hsl 128 15 0 100 0 1 empty empty empty -2 -8 0 10 #fcfcfc
#000000 #000000 6800 1;
#X text 2234 173 Delay;
#X text 2226 252 Gain;
#X floatatom 1930 93 5 0 0 0 - - -, f 5;
#X floatatom 2010 120 5 0 0 0 - - -, f 5;
#X floatatom 1982 218 5 0 0 0 - - -, f 5;
#X floatatom 1986 286 5 0 0 0 - - -, f 5;
#X text 2156 -246 Delay;
#X text 1754 -238 Delay;
#X text 1940 -240 Delay;
#X text 1576 -243 Delay;
#X obj 1823 -435 receive~ Ambient_Pad;
#X obj 1795 373 dac~;
#X obj 1795 318 *~ 0.5;
#X obj 1600 -51 Combfilter;
#X obj 1782 -50 Combfilter;
#X obj 1906 -49 Combfilter;
#X obj 2108 -51 Combfilter;
#X obj 1405 680 dac~;
#X obj 1405 515 NewShroederReverb;
#X text 1472 376 Shroeders Reverb;
#X connect 0 0 1 0;
#X connect 2 0 3 0;
#X connect 3 0 102 0;
#X connect 4 0 118 0;
#X connect 5 0 6 0;
#X connect 5 0 102 1;
#X connect 6 0 102 0;
#X connect 7 0 8 0;
#X connect 10 0 11 0;
#X connect 11 0 14 0;
#X connect 12 0 11 0;
#X connect 14 0 16 0;
#X connect 15 0 16 0;
#X connect 16 0 17 0;
#X connect 16 0 18 0;
#X connect 17 0 19 0;
#X connect 18 0 16 1;
#X connect 19 0 20 0;
#X connect 20 0 21 0;
#X connect 21 0 22 0;
#X connect 22 0 26 0;
#X connect 23 0 25 0;
#X connect 24 0 25 0;
#X connect 25 0 26 0;
#X connect 26 0 30 0;
#X connect 27 0 10 0;
#X connect 28 0 15 0;
#X connect 29 0 23 0;
#X connect 32 0 33 0;
#X connect 33 0 35 0;
#X connect 33 0 34 1;
#X connect 34 0 36 0;
#X connect 36 0 37 0;
#X connect 38 0 40 0;
#X connect 38 0 39 1;
#X connect 39 0 41 0;
#X connect 41 0 42 0;
#X connect 41 0 118 0;
#X connect 43 0 38 0;
#X connect 44 0 34 0;
#X connect 45 0 32 0;
#X connect 46 0 39 0;
#X connect 47 0 43 0;
#X connect 49 0 50 0;
#X connect 50 0 51 0;
#X connect 51 0 52 0;
#X connect 51 1 53 0;
#X connect 52 0 54 0;
#X connect 53 0 55 0;
#X connect 54 0 58 0;
#X connect 55 0 58 0;
#X connect 58 0 59 0;
#X connect 59 0 60 0;
#X connect 60 0 61 0;
#X connect 61 0 62 0;
#X connect 63 0 65 0;
#X connect 64 0 63 0;
#X connect 65 0 66 0;
#X connect 66 0 67 0;
#X connect 67 0 61 1;
#X connect 68 0 67 0;
#X connect 69 0 68 0;
#X connect 70 0 71 0;
#X connect 71 0 72 0;
#X connect 72 0 73 0;
#X connect 74 0 75 0;
#X connect 75 0 76 0;
#X connect 76 0 68 0;
#X connect 78 0 79 0;
#X connect 78 0 88 0;
#X connect 79 0 100 0;
#X connect 80 0 81 0;
#X connect 80 0 86 0;
#X connect 81 0 82 0;
#X connect 82 0 83 0;
#X connect 83 0 84 0;
#X connect 84 0 99 0;
#X connect 85 0 82 0;
#X connect 86 0 87 0;
#X connect 87 0 85 0;
#X connect 88 0 89 0;
#X connect 88 0 90 0;
#X connect 90 0 91 0;
#X connect 91 0 83 1;
#X connect 92 0 91 0;
#X connect 93 0 92 0;
#X connect 94 0 95 0;
#X connect 95 0 96 0;
#X connect 96 0 89 1;
#X connect 97 0 98 0;
#X connect 98 0 93 0;
#X connect 100 0 80 0;
#X connect 102 0 7 0;
#X connect 103 0 115 0;
#X connect 103 0 116 0;
#X connect 104 0 115 0;
#X connect 104 0 116 0;
#X connect 106 0 109 0;
#X connect 107 0 110 0;
#X connect 108 0 111 0;
#X connect 109 0 112 0;
#X connect 110 0 113 0;
#X connect 111 0 114 0;
#X connect 112 0 105 0;
#X connect 113 0 105 0;
#X connect 114 0 105 0;
#X connect 115 0 157 0;
#X connect 116 0 157 1;
#X connect 117 0 118 0;
#X connect 118 0 5 0;
#X connect 119 0 122 0;
#X connect 119 0 123 0;
#X connect 120 0 112 0;
#X connect 121 0 110 0;
#X connect 121 0 111 0;
#X connect 122 0 120 0;
#X connect 123 0 121 0;
#X connect 124 0 137 0;
#X connect 125 0 153 0;
#X connect 126 0 125 0;
#X connect 127 0 154 0;
#X connect 128 0 127 0;
#X connect 129 0 155 0;
#X connect 130 0 129 0;
#X connect 131 0 156 0;
#X connect 132 0 131 0;
#X connect 133 0 142 0;
#X connect 134 0 143 0;
#X connect 137 0 152 0;
#X connect 138 0 144 0;
#X connect 139 0 145 0;
#X connect 142 0 124 1;
#X connect 143 0 124 2;
#X connect 144 0 137 1;
#X connect 145 0 137 2;
#X connect 150 0 153 1;
#X connect 150 0 154 1;
#X connect 150 0 155 1;
#X connect 150 0 156 1;
#X connect 153 0 124 0;
#X connect 154 0 124 0;
#X connect 155 0 124 0;
#X connect 156 0 124 0;
