#N canvas 0 0 1538 770 10;
#X obj 1538 -365 cnv 15 977 664 empty empty Output\ Adjustments 20
12 0 14 #ffc2a6 #404040 0;
#X obj 952 68 cnv 15 556 475 empty empty Ambient\ Pad\ Melody 20 12
0 14 #8000ff #404040 0;
#X obj 981 -473 cnv 15 403 537 empty empty Clock\ Sequencer 20 12 0
14 #ff80ff #404040 0;
#X obj 472 -240 cnv 15 139 93 empty empty Play\ Music 20 12 0 14 #ff8080
#404040 0;
#X obj 185 -98 cnv 15 760 308 empty empty Clock\ Multiplication 20
12 0 14 #80ff80 #404040 0;
#X obj 275 208 cnv 15 669 380 empty empty Bass 20 12 0 14 #ffff80 #404040
0;
#X obj 676 -439 cnv 15 281 331 empty empty BPM 35 21 0 14 #8080ff #000000
0;
#X obj 506 -208 tgl 15 1 empty empty ON/OFF 17 7 0 10 #fcfcfc #000000
#000000 1 1;
#X obj 506 -183 send ON;
#X obj 715 -370 loadbang;
#X msg 716 -331 60000;
#X obj 843 -430 loadbang;
#X floatatom 841 -313 5 0 0 0 - - -, f 5;
#X obj 794 -271 bng 15 250 50 0 empty empty empty 17 7 0 10 #fcfcfc
#000000 #000000;
#X floatatom 793 -187 5 0 0 0 - - -, f 5;
#X obj 793 -143 send 4th_time;
#X obj 1092 -382 sel 0;
#X obj 1095 -332 bng 15 250 50 0 empty empty empty 17 7 0 10 #fcfcfc
#000000 #000000;
#X obj 991 -426 loadbang;
#X text 1010 -368 Reset;
#X msg 1095 -297 -1;
#X obj 1220 -274 bng 15 250 50 0 empty empty empty 17 7 0 10 #fcfcfc
#000000 #000000;
#X obj 1217 -238 int 1;
#X floatatom 1220 -198 5 0 0 0 - - -, f 5;
#X obj 1319 -233 + 1;
#X obj 1222 -170 % 2;
#X obj 1222 -148 + 1;
#X obj 1222 -113 sel 1;
#X obj 1222 -77 bng 15 250 50 0 empty empty empty 17 7 0 10 #fcfcfc
#000000 #000000;
#X obj 1043 -112 sel 0;
#X obj 1120 -106 loadbang;
#X msg 1129 -70 1;
#X obj 1220 -29 tgl 15 0 empty empty empty 17 7 0 10 #fcfcfc #000000
#000000 1 1;
#X obj 1089 -426 receive ON;
#X obj 1216 -312 receive whole_note;
#X obj 1036 -156 receive ON;
#X obj 1222 16 send Chord;
#X obj 372 -17 * 4;
#X floatatom 373 27 5 0 0 0 - - -, f 5;
#X obj 288 77 metro;
#X obj 371 80 send whole_time;
#X obj 288 134 bng 15 250 50 0 empty empty empty 17 7 0 10 #fcfcfc
#000000 #000000;
#X obj 288 157 send whole_note;
#X floatatom 795 39 5 0 0 0 - - -, f 5;
#X obj 710 89 metro;
#X obj 793 92 send whole_time;
#X obj 710 146 bng 15 250 50 0 empty empty empty 17 7 0 10 #fcfcfc
#000000 #000000;
#X obj 710 169 send 4th_note;
#X obj 794 -5 * 1;
#X obj 195 -32 receive ON;
#X obj 344 -70 receive 4th_time;
#X obj 594 -25 receive ON;
#X obj 784 -85 receive 4th_time;
#X obj 290 238 r Chord;
#X obj 290 262 tgl 15 0 empty empty empty 17 7 0 10 #fcfcfc #000000
#000000 1 1;
#X obj 290 285 sel 0;
#X obj 290 324 bng 14 250 50 0 empty empty empty 17 7 0 10 #fcfcfc
#000000 #000000;
#X obj 318 325 bng 15 250 50 0 empty empty empty 17 7 0 10 #fcfcfc
#000000 #000000;
#X msg 292 379 130.81;
#X msg 376 378 87.31;
#X text 386 355 F;
#X text 304 359 C;
#X floatatom 321 424 5 0 0 0 - - -, f 5;
#X obj 321 454 phasor~;
#X obj 323 490 lop~ 100;
#X obj 325 531 *~;
#X obj 325 565 send~ Bass;
#X obj 606 352 sel 1;
#X obj 606 303 receive ON;
#X obj 606 402 bng 15 250 50 0 empty empty empty 17 7 0 10 #fcfcfc
#000000 #000000;
#X msg 606 443 1 500;
#X obj 606 506 line;
#X msg 682 474 0 100;
#X obj 681 432 delay;
#X obj 790 300 receive whole_time;
#X obj 791 329 * 2;
#X floatatom 790 372 5 0 0 0 - - -, f 5;
#X obj 790 396 - 100;
#X obj 868 358 receive ON;
#X obj 870 393 sel 0;
#X obj 862 434 delay 5;
#X obj 977 145 r whole_note;
#X obj 977 179 bng 15 250 50 0 empty empty empty 17 7 0 10 #fcfcfc
#000000 #000000;
#X floatatom 1070 258 5 0 0 0 - - -, f 5;
#X obj 1071 329 phasor~;
#X obj 1069 360 lop~ 100;
#X obj 1070 390 *~;
#X obj 1070 431 *~ 0.5;
#X obj 1157 329 phasor~;
#X obj 1157 270 * 1.001;
#X floatatom 1157 295 5 0 0 0 - - -, f 5;
#X obj 1227 196 bng 15 250 50 0 empty empty empty 17 7 0 10 #fcfcfc
#000000 #000000;
#X obj 1303 240 delay;
#X msg 1233 278 1 500;
#X obj 1233 353 line;
#X msg 1334 290 0 500, f 6;
#X obj 1407 240 delay 5;
#X obj 1317 133 receive whole_time;
#X floatatom 1319 165 5 0 0 0 - - -, f 5;
#X obj 1319 189 - 500;
#X obj 1411 173 receive ON;
#X obj 1411 208 sel 0;
#X obj 1069 474 send~ Ambient_Pad;
#N canvas 64 208 434 319 Chords_Scales 0;
#X obj 180 18 inlet;
#X obj 180 43 bng 15 250 50 0 empty empty empty 17 7 0 10 #fcfcfc #000000
#000000;
#X obj 180 66 random 8;
#X floatatom 180 91 5 0 0 0 - - -, f 5;
#X obj 37 136 sel 0;
#X obj 368 138 sel 7;
#X obj 320 138 sel 6;
#X obj 272 136 sel 5;
#X obj 221 137 sel 4;
#X obj 179 137 sel 3;
#X obj 133 137 sel 2;
#X obj 86 135 sel 1;
#X msg 36 182 60;
#X msg 85 184 62;
#X msg 134 183 64;
#X msg 179 184 65;
#X msg 220 186 67;
#X msg 272 188 69;
#X msg 320 185 71;
#X msg 368 186 72;
#X text 45 156 C;
#X text 102 158 D;
#X text 145 160 E;
#X text 192 161 F;
#X text 232 160 G;
#X text 280 161 A;
#X text 330 164 B;
#X text 378 162 C;
#X floatatom 196 226 5 0 0 0 - - -, f 5;
#X obj 192 263 mtof;
#X text 248 268 < Converting MIDI Note to Frequencey;
#X floatatom 192 288 5 0 0 0 - - -, f 5;
#X obj 192 312 outlet;
#X connect 0 0 1 0;
#X connect 1 0 2 0;
#X connect 2 0 3 0;
#X connect 3 0 4 0;
#X connect 3 0 11 0;
#X connect 3 0 10 0;
#X connect 3 0 9 0;
#X connect 3 0 8 0;
#X connect 3 0 7 0;
#X connect 3 0 6 0;
#X connect 3 0 5 0;
#X connect 4 0 12 0;
#X connect 5 0 19 0;
#X connect 6 0 18 0;
#X connect 7 0 17 0;
#X connect 8 0 16 0;
#X connect 9 0 15 0;
#X connect 10 0 14 0;
#X connect 11 0 13 0;
#X connect 12 0 28 0;
#X connect 13 0 28 0;
#X connect 14 0 28 0;
#X connect 15 0 28 0;
#X connect 16 0 28 0;
#X connect 17 0 28 0;
#X connect 18 0 28 0;
#X connect 19 0 28 0;
#X connect 28 0 29 0;
#X connect 29 0 31 0;
#X connect 31 0 32 0;
#X restore 979 209 pd Chords_Scales;
#X obj 793 -220 /;
#X obj 1560 -2 receive~ Bass;
#X obj 1841 -138 receive~ Ambient_Pad;
#X obj 1843 164 *~ 0.5;
#X obj 1909 164 *~ 0.5;
#X obj 803 -423 tgl 15 1 empty empty empty 17 7 0 10 #fcfcfc #000000
#000000 1 1;
#X obj 1848 247 dac~;
#X obj 1841 -36 NewShroederReverb;
#X obj 1566 43 *~ 0.3;
#X obj 1710 105 lop~;
#X obj 1681 21 mtof;
#X obj 1681 -12 hsl 128 15 0 127 0 1 empty empty empty -2 -8 0 10 #fcfcfc
#000000 #000000 6750 1;
#X floatatom 1681 53 5 0 0 0 - - -, f 5;
#X obj 1690 -90 hsl 128 15 0 127 0 1 empty empty empty -2 -8 0 10 #fcfcfc
#000000 #000000 6450 1;
#X text 1734 -112 lowpass;
#X text 1723 -36 lowpass;
#X obj 2156 -189 KarplusStrongPluckedString;
#X floatatom 1690 -67 5 0 0 0 - - -, f 5;
#N canvas 64 208 434 319 Chords_Scales 0;
#X obj 180 18 inlet;
#X obj 180 43 bng 15 250 50 0 empty empty empty 17 7 0 10 #fcfcfc #000000
#000000;
#X obj 180 66 random 8;
#X floatatom 180 91 5 0 0 0 - - -, f 5;
#X obj 37 136 sel 0;
#X obj 368 138 sel 7;
#X obj 320 138 sel 6;
#X obj 272 136 sel 5;
#X obj 221 137 sel 4;
#X obj 179 137 sel 3;
#X obj 133 137 sel 2;
#X obj 86 135 sel 1;
#X msg 36 182 60;
#X msg 85 184 62;
#X msg 134 183 64;
#X msg 179 184 65;
#X msg 220 186 67;
#X msg 272 188 69;
#X msg 320 185 71;
#X msg 368 186 72;
#X text 45 156 C;
#X text 102 158 D;
#X text 145 160 E;
#X text 192 161 F;
#X text 232 160 G;
#X text 280 161 A;
#X text 330 164 B;
#X text 378 162 C;
#X floatatom 196 226 5 0 0 0 - - -, f 5;
#X obj 192 263 mtof;
#X text 248 268 < Converting MIDI Note to Frequencey;
#X floatatom 192 288 5 0 0 0 - - -, f 5;
#X obj 192 312 outlet;
#X connect 0 0 1 0;
#X connect 1 0 2 0;
#X connect 2 0 3 0;
#X connect 3 0 4 0;
#X connect 3 0 11 0;
#X connect 3 0 10 0;
#X connect 3 0 9 0;
#X connect 3 0 8 0;
#X connect 3 0 7 0;
#X connect 3 0 6 0;
#X connect 3 0 5 0;
#X connect 4 0 12 0;
#X connect 5 0 19 0;
#X connect 6 0 18 0;
#X connect 7 0 17 0;
#X connect 8 0 16 0;
#X connect 9 0 15 0;
#X connect 10 0 14 0;
#X connect 11 0 13 0;
#X connect 12 0 28 0;
#X connect 13 0 28 0;
#X connect 14 0 28 0;
#X connect 15 0 28 0;
#X connect 16 0 28 0;
#X connect 17 0 28 0;
#X connect 18 0 28 0;
#X connect 19 0 28 0;
#X connect 28 0 29 0;
#X connect 29 0 31 0;
#X connect 31 0 32 0;
#X restore 2156 -221 pd Chords_Scales;
#X obj 2156 -279 r whole_note;
#X obj 2156 -248 bng 15 250 50 0 empty empty empty 17 7 0 10 #fcfcfc
#000000 #000000;
#X obj 1841 -88 *~ 0.1;
#X obj 2349 -29 vsl 50 128 0 1 0 1 empty empty empty 0 -9 0 10 #fcfcfc
#000000 #000000 5900 1;
#X text 2413 33 Volume;
#X floatatom 2349 113 5 0 0 0 - - -, f 5;
#X obj 2154 30 *~ 0.05;
#X obj 2155 -30 NewShroederReverb;
#X obj 2005 -91 hsl 128 15 0 127 0 1 empty empty empty -2 -8 0 10 #fcfcfc
#000000 #000000 6950 1;
#X text 2049 -113 lowpass;
#X floatatom 2005 -68 5 0 0 0 - - -, f 5;
#X obj 2251 28 *~ 0.05;
#X obj 2156 -107 *~ 0.5;
#X msg 843 -364 60;
#X obj 882 -404 receive BPM;
#X floatatom 882 -383 5 0 0 0 - - -, f 5;
#X msg 882 -363 \$1;
#X obj 2418 -132 receive BPM;
#X floatatom 2418 -102 5 0 0 0 - - -, f 5;
#X obj 2418 -74 / 200;
#X floatatom 2418 -49 5 0 0 0 - - -, f 5;
#X text 2419 -159 BPM = Volume;
#X text 903 -425 Hearrate;
#X obj 2380 -335 vsl 50 128 0 1 0 1 empty empty empty 0 -9 0 10 #fcfcfc
#000000 #000000 6800 1;
#X floatatom 2380 -194 5 0 0 0 - - -, f 5;
#X obj 1994 -334 vsl 50 128 0 1 0 1 empty empty empty 0 -9 0 10 #fcfcfc
#000000 #000000 9600 1;
#X floatatom 1994 -193 5 0 0 0 - - -, f 5;
#X obj 2048 -334 vsl 50 128 0 1 0 1 empty empty empty 0 -9 0 10 #fcfcfc
#000000 #000000 8300 1;
#X floatatom 2048 -193 5 0 0 0 - - -, f 5;
#X obj 2436 -335 vsl 50 128 0 1 0 1 empty empty empty 0 -9 0 10 #fcfcfc
#000000 #000000 9400 1;
#X floatatom 2436 -194 5 0 0 0 - - -, f 5;
#X text 1988 -354 Combfilter;
#X text 2051 -354 Allpass;
#X text 2376 -354 Combfilter;
#X text 2443 -354 Allpass;
#X connect 7 0 8 0;
#X connect 9 0 10 0;
#X connect 10 0 104 0;
#X connect 11 0 136 0;
#X connect 12 0 13 0;
#X connect 12 0 104 1;
#X connect 13 0 104 0;
#X connect 14 0 15 0;
#X connect 16 0 17 0;
#X connect 17 0 20 0;
#X connect 18 0 17 0;
#X connect 20 0 22 0;
#X connect 21 0 22 0;
#X connect 22 0 23 0;
#X connect 22 0 24 0;
#X connect 23 0 25 0;
#X connect 24 0 22 1;
#X connect 25 0 26 0;
#X connect 26 0 27 0;
#X connect 27 0 28 0;
#X connect 28 0 32 0;
#X connect 29 0 31 0;
#X connect 30 0 31 0;
#X connect 31 0 32 0;
#X connect 32 0 36 0;
#X connect 33 0 16 0;
#X connect 34 0 21 0;
#X connect 35 0 29 0;
#X connect 37 0 38 0;
#X connect 38 0 40 0;
#X connect 38 0 39 1;
#X connect 39 0 41 0;
#X connect 41 0 42 0;
#X connect 43 0 45 0;
#X connect 43 0 44 1;
#X connect 44 0 46 0;
#X connect 46 0 47 0;
#X connect 48 0 43 0;
#X connect 49 0 39 0;
#X connect 50 0 37 0;
#X connect 51 0 44 0;
#X connect 52 0 48 0;
#X connect 53 0 54 0;
#X connect 54 0 55 0;
#X connect 55 0 56 0;
#X connect 55 1 57 0;
#X connect 56 0 58 0;
#X connect 57 0 59 0;
#X connect 58 0 62 0;
#X connect 59 0 62 0;
#X connect 62 0 63 0;
#X connect 63 0 64 0;
#X connect 64 0 65 0;
#X connect 65 0 66 0;
#X connect 67 0 69 0;
#X connect 68 0 67 0;
#X connect 69 0 70 0;
#X connect 70 0 71 0;
#X connect 71 0 65 1;
#X connect 72 0 71 0;
#X connect 73 0 72 0;
#X connect 74 0 75 0;
#X connect 75 0 76 0;
#X connect 76 0 77 0;
#X connect 77 0 73 1;
#X connect 78 0 79 0;
#X connect 79 0 80 0;
#X connect 80 0 72 0;
#X connect 81 0 82 0;
#X connect 81 0 91 0;
#X connect 82 0 103 0;
#X connect 83 0 84 0;
#X connect 83 0 89 0;
#X connect 84 0 85 0;
#X connect 85 0 86 0;
#X connect 86 0 87 0;
#X connect 87 0 102 0;
#X connect 88 0 85 0;
#X connect 89 0 90 0;
#X connect 90 0 88 0;
#X connect 91 0 92 0;
#X connect 91 0 93 0;
#X connect 92 0 95 0;
#X connect 93 0 94 0;
#X connect 94 0 86 1;
#X connect 95 0 94 0;
#X connect 96 0 95 0;
#X connect 97 0 98 0;
#X connect 98 0 99 0;
#X connect 99 0 92 1;
#X connect 100 0 101 0;
#X connect 101 0 96 0;
#X connect 103 0 83 0;
#X connect 104 0 14 0;
#X connect 105 0 112 0;
#X connect 106 0 125 0;
#X connect 107 0 110 0;
#X connect 108 0 110 1;
#X connect 109 0 136 0;
#X connect 111 0 107 0;
#X connect 111 1 108 0;
#X connect 112 0 113 0;
#X connect 113 0 107 0;
#X connect 113 0 108 0;
#X connect 114 0 116 0;
#X connect 115 0 114 0;
#X connect 116 0 113 1;
#X connect 117 0 121 0;
#X connect 120 0 135 0;
#X connect 121 0 111 0;
#X connect 122 0 120 0;
#X connect 123 0 124 0;
#X connect 124 0 122 0;
#X connect 125 0 111 1;
#X connect 126 0 128 0;
#X connect 128 0 108 1;
#X connect 128 0 107 1;
#X connect 129 0 108 0;
#X connect 129 0 107 0;
#X connect 130 0 129 0;
#X connect 130 1 134 0;
#X connect 131 0 133 0;
#X connect 133 0 130 0;
#X connect 134 0 108 0;
#X connect 134 0 107 0;
#X connect 135 0 130 1;
#X connect 136 0 12 0;
#X connect 137 0 138 0;
#X connect 138 0 139 0;
#X connect 139 0 12 0;
#X connect 140 0 141 0;
#X connect 141 0 142 0;
#X connect 142 0 143 0;
#X connect 143 0 128 0;
#X connect 146 0 147 0;
#X connect 147 0 130 2;
#X connect 148 0 149 0;
#X connect 149 0 111 2;
#X connect 150 0 151 0;
#X connect 151 0 111 3;
#X connect 152 0 153 0;
#X connect 153 0 130 3;
