#N canvas 0 0 1538 770 10;
#X obj 1538 -365 cnv 15 977 664 empty empty Output\ Adjustments 20
12 0 14 #ffc2a6 #404040 0;
#X obj 952 68 cnv 15 556 475 empty empty Ambient\ Pad\ Melody 20 12
0 14 #8000ff #404040 0;
#X obj 981 -473 cnv 15 403 537 empty empty Clock\ Sequencer 20 12 0
14 #ff80ff #404040 0;
#X obj 472 -240 cnv 15 139 93 empty empty Play\ Music 20 12 0 14 #ff8080
#404040 0;
#X obj 185 -98 cnv 15 760 308 empty empty Clock\ Multiplication 20
12 0 14 #80ff80 #404040 0;
#X obj 275 208 cnv 15 669 380 empty empty Bass 20 12 0 14 #ffff80 #404040
0;
#X obj 676 -439 cnv 15 281 331 empty empty BPM 35 21 0 14 #8080ff #000000
0;
#X obj 506 -208 tgl 15 1 empty empty ON/OFF 17 7 0 10 #fcfcfc #000000
#000000 1 1;
#X obj 506 -183 send ON;
#X obj 715 -370 loadbang;
#X msg 716 -331 60000;
#X obj 843 -430 loadbang;
#X floatatom 841 -313 5 0 0 0 - - -, f 5;
#X obj 794 -271 bng 15 250 50 0 empty empty empty 17 7 0 10 #fcfcfc
#000000 #000000;
#X floatatom 793 -187 5 0 0 0 - - -, f 5;
#X obj 793 -143 send 4th_time;
#X obj 1092 -382 sel 0;
#X obj 1095 -332 bng 15 250 50 0 empty empty empty 17 7 0 10 #fcfcfc
#000000 #000000;
#X obj 991 -426 loadbang;
#X text 1010 -368 Reset;
#X msg 1095 -297 -1;
#X obj 1220 -274 bng 15 250 50 0 empty empty empty 17 7 0 10 #fcfcfc
#000000 #000000;
#X obj 1217 -238 int 1;
#X floatatom 1220 -198 5 0 0 0 - - -, f 5;
#X obj 1319 -233 + 1;
#X obj 1222 -170 % 2;
#X obj 1222 -148 + 1;
#X obj 1222 -113 sel 1;
#X obj 1222 -77 bng 15 250 50 0 empty empty empty 17 7 0 10 #fcfcfc
#000000 #000000;
#X obj 1043 -112 sel 0;
#X obj 1120 -106 loadbang;
#X msg 1129 -70 1;
#X obj 1220 -29 tgl 15 0 empty empty empty 17 7 0 10 #fcfcfc #000000
#000000 1 1;
#X obj 1089 -426 receive ON;
#X obj 1216 -312 receive whole_note;
#X obj 1036 -156 receive ON;
#X obj 1222 16 send Chord;
#X obj 372 -17 * 4;
#X floatatom 373 27 5 0 0 0 - - -, f 5;
#X obj 288 77 metro;
#X obj 371 80 send whole_time;
#X obj 288 134 bng 15 250 50 0 empty empty empty 17 7 0 10 #fcfcfc
#000000 #000000;
#X obj 288 157 send whole_note;
#X floatatom 795 39 5 0 0 0 - - -, f 5;
#X obj 710 89 metro;
#X obj 793 92 send whole_time;
#X obj 710 146 bng 15 250 50 0 empty empty empty 17 7 0 10 #fcfcfc
#000000 #000000;
#X obj 710 169 send 4th_note;
#X obj 794 -5 * 1;
#X obj 195 -32 receive ON;
#X obj 344 -70 receive 4th_time;
#X obj 594 -25 receive ON;
#X obj 784 -85 receive 4th_time;
#X obj 290 238 r Chord;
#X obj 290 262 tgl 15 0 empty empty empty 17 7 0 10 #fcfcfc #000000
#000000 1 1;
#X obj 290 285 sel 0;
#X obj 290 324 bng 14 250 50 0 empty empty empty 17 7 0 10 #fcfcfc
#000000 #000000;
#X obj 318 325 bng 15 250 50 0 empty empty empty 17 7 0 10 #fcfcfc
#000000 #000000;
#X msg 292 379 130.81;
#X msg 376 378 87.31;
#X text 386 355 F;
#X text 304 359 C;
#X floatatom 321 424 5 0 0 0 - - -, f 5;
#X obj 321 454 phasor~;
#X obj 323 490 lop~ 100;
#X obj 325 531 *~;
#X obj 325 565 send~ Bass;
#X obj 606 352 sel 1;
#X obj 606 303 receive ON;
#X obj 606 402 bng 15 250 50 0 empty empty empty 17 7 0 10 #fcfcfc
#000000 #000000;
#X msg 606 443 1 500;
#X obj 606 506 line;
#X msg 682 474 0 100;
#X obj 681 432 delay;
#X obj 790 300 receive whole_time;
#X obj 791 329 * 2;
#X floatatom 790 372 5 0 0 0 - - -, f 5;
#X obj 790 396 - 100;
#X obj 868 358 receive ON;
#X obj 870 393 sel 0;
#X obj 862 434 delay 5;
#X obj 977 145 r whole_note;
#X obj 977 179 bng 15 250 50 0 empty empty empty 17 7 0 10 #fcfcfc
#000000 #000000;
#X floatatom 1070 258 5 0 0 0 - - -, f 5;
#X obj 1071 329 phasor~;
#X obj 1069 360 lop~ 100;
#X obj 1070 390 *~;
#X obj 1070 431 *~ 0.5;
#X obj 1157 329 phasor~;
#X obj 1157 270 * 1.001;
#X floatatom 1157 295 5 0 0 0 - - -, f 5;
#X obj 1227 196 bng 15 250 50 0 empty empty empty 17 7 0 10 #fcfcfc
#000000 #000000;
#X obj 1303 240 delay;
#X msg 1233 278 1 500;
#X obj 1233 353 line;
#X msg 1334 290 0 500, f 6;
#X obj 1407 240 delay 5;
#X obj 1317 133 receive whole_time;
#X floatatom 1319 165 5 0 0 0 - - -, f 5;
#X obj 1319 189 - 500;
#X obj 1411 173 receive ON;
#X obj 1411 208 sel 0;
#X obj 1069 474 send~ Ambient_Pad;
#N canvas 64 208 434 319 Chords_Scales 0;
#X obj 180 18 inlet;
#X obj 180 43 bng 15 250 50 0 empty empty empty 17 7 0 10 #fcfcfc #000000
#000000;
#X obj 180 66 random 8;
#X floatatom 180 91 5 0 0 0 - - -, f 5;
#X obj 37 136 sel 0;
#X obj 368 138 sel 7;
#X obj 320 138 sel 6;
#X obj 272 136 sel 5;
#X obj 221 137 sel 4;
#X obj 179 137 sel 3;
#X obj 133 137 sel 2;
#X obj 86 135 sel 1;
#X msg 36 182 60;
#X msg 85 184 62;
#X msg 134 183 64;
#X msg 179 184 65;
#X msg 220 186 67;
#X msg 272 188 69;
#X msg 320 185 71;
#X msg 368 186 72;
#X text 45 156 C;
#X text 102 158 D;
#X text 145 160 E;
#X text 192 161 F;
#X text 232 160 G;
#X text 280 161 A;
#X text 330 164 B;
#X text 378 162 C;
#X floatatom 196 226 5 0 0 0 - - -, f 5;
#X obj 192 263 mtof;
#X text 248 268 < Converting MIDI Note to Frequencey;
#X floatatom 192 288 5 0 0 0 - - -, f 5;
#X obj 192 312 outlet;
#X connect 0 0 1 0;
#X connect 1 0 2 0;
#X connect 2 0 3 0;
#X connect 3 0 4 0;
#X connect 3 0 11 0;
#X connect 3 0 10 0;
#X connect 3 0 9 0;
#X connect 3 0 8 0;
#X connect 3 0 7 0;
#X connect 3 0 6 0;
#X connect 3 0 5 0;
#X connect 4 0 12 0;
#X connect 5 0 19 0;
#X connect 6 0 18 0;
#X connect 7 0 17 0;
#X connect 8 0 16 0;
#X connect 9 0 15 0;
#X connect 10 0 14 0;
#X connect 11 0 13 0;
#X connect 12 0 28 0;
#X connect 13 0 28 0;
#X connect 14 0 28 0;
#X connect 15 0 28 0;
#X connect 16 0 28 0;
#X connect 17 0 28 0;
#X connect 19 0 28 0;
#X connect 28 0 29 0;
#X connect 29 0 31 0;
#X connect 31 0 32 0;
#X restore 979 209 pd Chords_Scales;
#X obj 793 -220 /;
#X obj 1560 24 receive~ Bass;
#X obj 1841 -11 receive~ Ambient_Pad;
#X obj 1843 164 *~ 0.5;
#X obj 1909 164 *~ 0.5;
#X obj 803 -423 tgl 15 1 empty empty empty 17 7 0 10 #fcfcfc #000000
#000000 1 1;
#X obj 1848 247 dac~;
#X obj 1841 91 NewShroederReverb;
#X obj 1566 69 *~ 0.3;
#X obj 1710 131 lop~;
#X obj 1681 47 mtof;
#X obj 1681 14 hsl 128 15 0 127 0 1 empty empty empty -2 -8 0 10 #fcfcfc
#000000 #000000 6750 1;
#X floatatom 1681 79 5 0 0 0 - - -, f 5;
#X obj 1690 -64 hsl 128 15 0 127 0 1 empty empty empty -2 -8 0 10 #fcfcfc
#000000 #000000 6450 1;
#X text 1734 -86 lowpass;
#X text 1723 -10 lowpass;
#X floatatom 1690 -41 5 0 0 0 - - -, f 5;
#X obj 2024 -325 bng 15 250 50 0 empty empty empty 17 7 0 10 #fcfcfc
#000000 #000000;
#X obj 1841 39 *~ 0.1;
#X obj 2349 -29 vsl 50 128 0 1 0 1 empty empty empty 0 -9 0 10 #fcfcfc
#000000 #000000 5900 1;
#X text 2413 33 Volume;
#X floatatom 2349 113 5 0 0 0 - - -, f 5;
#X obj 2154 30 *~ 0.05;
#X obj 2155 -30 NewShroederReverb;
#X obj 2005 -91 hsl 128 15 0 127 0 1 empty empty empty -2 -8 0 10 #fcfcfc
#000000 #000000 6950 1;
#X text 2049 -113 lowpass;
#X floatatom 2005 -68 5 0 0 0 - - -, f 5;
#X obj 2251 28 *~ 0.05;
#X obj 2156 -107 *~ 0.5;
#X obj 882 -404 receive BPM;
#X floatatom 882 -383 5 0 0 0 - - -, f 5;
#X msg 882 -363 \$1;
#X obj 2418 -132 receive BPM;
#X floatatom 2418 -102 5 0 0 0 - - -, f 5;
#X obj 2418 -74 / 200;
#X floatatom 2418 -49 5 0 0 0 - - -, f 5;
#X text 2419 -159 BPM = Volume;
#X obj 2380 -335 vsl 50 128 0 1 0 1 empty empty empty 0 -9 0 10 #fcfcfc
#000000 #000000 6500 1;
#X floatatom 2380 -194 5 0 0 0 - - -, f 5;
#X obj 1885 -203 vsl 50 128 0 1 0 1 empty empty empty 0 -9 0 10 #fcfcfc
#000000 #000000 9600 1;
#X floatatom 1885 -62 5 0 0 0 - - -, f 5;
#X obj 1939 -203 vsl 50 128 0 1 0 1 empty empty empty 0 -9 0 10 #fcfcfc
#000000 #000000 8300 1;
#X floatatom 1939 -62 5 0 0 0 - - -, f 5;
#X obj 2436 -335 vsl 50 128 0 1 0 1 empty empty empty 0 -9 0 10 #fcfcfc
#000000 #000000 9800 1;
#X floatatom 2436 -194 5 0 0 0 - - -, f 5;
#X text 1879 -223 Combfilter;
#X text 1942 -223 Allpass;
#X text 2376 -354 Combfilter;
#X text 2443 -354 Allpass;
#N canvas 0 0 1538 762 Melody_Sequence_thresh1 0;
#X obj 1061 42 cnv 15 582 126 empty empty Sequence\ 3 20 12 0 14 #ff8000
#404040 0;
#X obj 591 43 cnv 15 468 124 empty empty Sequence\ 2 20 12 0 14 #80ff80
#404040 0;
#X obj 123 43 cnv 15 468 124 empty empty Sequence\ 1 20 12 0 14 #ff8080
#404040 0;
#X obj 1068 -263 inlet;
#X obj 1068 -238 bng 15 250 50 0 empty empty empty 17 7 0 10 #fcfcfc
#000000 #000000;
#X floatatom 1068 -138 5 0 0 0 - - -, f 5;
#X obj 138 80 sel 0;
#X obj 346 82 sel 6;
#X obj 286 81 sel 4;
#X obj 234 81 sel 2;
#X obj 187 79 sel 1;
#X msg 137 126 60;
#X text 146 100 C;
#X floatatom 1077 542 5 0 0 0 - - -, f 5;
#X obj 1077 569 mtof;
#X text 1133 574 < Converting MIDI Note to Frequencey;
#X floatatom 1077 594 5 0 0 0 - - -, f 5;
#X obj 1078 661 outlet;
#X obj 1068 -217 int 1;
#X obj 1132 -218 + 1;
#X obj 1068 -165 -8;
#X msg 186 128 65;
#X text 203 102 F;
#X msg 235 127 67;
#X text 246 104 G;
#X msg 293 130 69;
#X text 305 102 A;
#X msg 346 129 67;
#X text 356 108 G;
#X msg 394 130 65;
#X text 404 106 F;
#X obj 394 82 sel 8;
#X obj 447 78 sel 10;
#X text 457 102 G;
#X msg 447 126 67;
#X obj 497 80 sel 12;
#X text 507 104 C;
#X msg 497 128 60;
#X text 554 103 C;
#X obj 544 79 sel 15;
#X msg 544 127 72;
#X obj 596 71 sel 16;
#X obj 651 72 sel 17;
#X obj 702 72 sel 18;
#X obj 757 74 sel 22;
#X obj 808 74 sel 24;
#X obj 858 75 sel 26;
#X obj 910 75 sel 28;
#X obj 961 77 sel 29;
#X obj 1016 76 sel 30;
#X msg 595 120 67;
#X text 606 97 G;
#X msg 647 123 65;
#X text 657 99 F;
#X msg 699 125 64;
#X text 709 101 E;
#X msg 754 120 67;
#X text 765 97 G;
#X msg 806 123 69;
#X text 818 95 A;
#X msg 857 124 67;
#X text 868 103 G;
#X msg 911 124 65;
#X text 920 103 F;
#X msg 962 125 64;
#X text 972 101 E;
#X text 1027 102 D;
#X msg 1018 124 62;
#X msg 1084 121 60;
#X text 1093 95 C;
#X msg 1133 123 65;
#X text 1150 97 F;
#X msg 1182 122 67;
#X text 1193 99 G;
#X msg 1293 124 67;
#X text 1303 103 G;
#X msg 1341 125 65;
#X text 1351 101 F;
#X text 1501 98 C;
#X msg 1542 124 67;
#X text 1553 101 G;
#X text 1248 99 C;
#X msg 1238 123 72;
#X msg 1398 125 64;
#X text 1407 99 E;
#X text 1455 103 D;
#X msg 1446 125 62;
#X obj 1085 75 sel 32;
#X obj 1134 74 sel 33;
#X obj 1181 76 sel 34;
#X obj 1233 76 sel 36;
#X obj 1293 77 sel 38;
#X obj 1341 77 sel 40;
#X obj 1394 73 sel 41;
#X obj 1444 75 sel 42;
#X obj 1491 74 sel 45;
#X msg 1490 122 60;
#X obj 1543 75 sel 46;
#X obj 1598 76 sel 47;
#X msg 1600 127 69;
#X text 1612 99 A;
#X obj 1645 42 cnv 15 482 126 empty empty Sequence\ 4 20 12 0 14 #80ffff
#404040 0;
#X obj 1669 75 sel 48;
#X obj 1718 74 sel 52;
#X obj 1765 76 sel 53;
#X obj 1817 76 sel 54;
#X obj 1877 77 sel 55;
#X obj 1925 77 sel 58;
#X obj 1978 73 sel 60;
#X obj 2025 75 sel 61;
#X obj 2075 74 sel 63;
#X msg 1671 121 67;
#X text 1681 100 G;
#X msg 1720 120 65;
#X text 1735 96 F;
#X msg 1769 119 67;
#X text 1780 96 G;
#X msg 1820 122 65;
#X text 1830 98 F;
#X msg 1877 122 64;
#X text 1889 100 E;
#X msg 1926 121 67;
#X text 1936 98 G;
#X msg 1976 122 65;
#X text 1985 101 F;
#X msg 2027 123 64;
#X text 2037 99 E;
#X text 2092 100 D;
#X msg 2083 122 62;
#X obj 1068 -190 % 64;
#X obj 790 -214 loadbang;
#X obj 930 -161 bng 15 250 50 0 empty empty empty 17 7 0 10 #fcfcfc
#000000 #000000;
#X obj 921 -242 receive ON;
#X obj 925 -213 sel 0;
#X msg 978 -150 -1;
#X connect 3 0 4 0;
#X connect 4 0 18 0;
#X connect 5 0 6 0;
#X connect 5 0 10 0;
#X connect 5 0 9 0;
#X connect 5 0 8 0;
#X connect 5 0 7 0;
#X connect 5 0 31 0;
#X connect 5 0 32 0;
#X connect 5 0 35 0;
#X connect 5 0 39 0;
#X connect 5 0 41 0;
#X connect 5 0 49 0;
#X connect 5 0 48 0;
#X connect 5 0 47 0;
#X connect 5 0 46 0;
#X connect 5 0 45 0;
#X connect 5 0 44 0;
#X connect 5 0 43 0;
#X connect 5 0 42 0;
#X connect 5 0 87 0;
#X connect 5 0 98 0;
#X connect 5 0 97 0;
#X connect 5 0 95 0;
#X connect 5 0 94 0;
#X connect 5 0 93 0;
#X connect 5 0 92 0;
#X connect 5 0 91 0;
#X connect 5 0 90 0;
#X connect 5 0 89 0;
#X connect 5 0 88 0;
#X connect 5 0 102 0;
#X connect 5 0 110 0;
#X connect 5 0 109 0;
#X connect 5 0 108 0;
#X connect 5 0 107 0;
#X connect 5 0 106 0;
#X connect 5 0 105 0;
#X connect 5 0 104 0;
#X connect 5 0 103 0;
#X connect 6 0 11 0;
#X connect 7 0 27 0;
#X connect 8 0 25 0;
#X connect 9 0 23 0;
#X connect 10 0 21 0;
#X connect 11 0 13 0;
#X connect 13 0 14 0;
#X connect 14 0 16 0;
#X connect 16 0 17 0;
#X connect 18 0 19 0;
#X connect 18 0 129 0;
#X connect 19 0 18 1;
#X connect 20 0 5 0;
#X connect 21 0 13 0;
#X connect 23 0 13 0;
#X connect 25 0 13 0;
#X connect 27 0 13 0;
#X connect 29 0 13 0;
#X connect 31 0 29 0;
#X connect 32 0 34 0;
#X connect 34 0 13 0;
#X connect 35 0 37 0;
#X connect 37 0 13 0;
#X connect 39 0 40 0;
#X connect 40 0 13 0;
#X connect 41 0 50 0;
#X connect 42 0 52 0;
#X connect 43 0 54 0;
#X connect 44 0 56 0;
#X connect 45 0 58 0;
#X connect 46 0 60 0;
#X connect 47 0 62 0;
#X connect 48 0 64 0;
#X connect 49 0 67 0;
#X connect 50 0 13 0;
#X connect 52 0 13 0;
#X connect 54 0 13 0;
#X connect 56 0 13 0;
#X connect 58 0 13 0;
#X connect 60 0 13 0;
#X connect 62 0 13 0;
#X connect 64 0 13 0;
#X connect 67 0 13 0;
#X connect 68 0 13 0;
#X connect 70 0 13 0;
#X connect 72 0 13 0;
#X connect 74 0 13 0;
#X connect 76 0 13 0;
#X connect 79 0 13 0;
#X connect 82 0 13 0;
#X connect 83 0 13 0;
#X connect 86 0 13 0;
#X connect 87 0 68 0;
#X connect 88 0 70 0;
#X connect 89 0 72 0;
#X connect 90 0 82 0;
#X connect 91 0 74 0;
#X connect 92 0 76 0;
#X connect 93 0 83 0;
#X connect 94 0 86 0;
#X connect 95 0 96 0;
#X connect 96 0 13 0;
#X connect 97 0 79 0;
#X connect 98 0 99 0;
#X connect 99 0 13 0;
#X connect 102 0 111 0;
#X connect 103 0 113 0;
#X connect 104 0 115 0;
#X connect 105 0 117 0;
#X connect 106 0 119 0;
#X connect 107 0 121 0;
#X connect 108 0 123 0;
#X connect 109 0 125 0;
#X connect 110 0 128 0;
#X connect 111 0 13 0;
#X connect 113 0 13 0;
#X connect 115 0 13 0;
#X connect 117 0 13 0;
#X connect 119 0 13 0;
#X connect 121 0 13 0;
#X connect 123 0 13 0;
#X connect 125 0 13 0;
#X connect 128 0 13 0;
#X connect 129 0 20 0;
#X connect 130 0 131 0;
#X connect 131 0 134 0;
#X connect 132 0 133 0;
#X connect 133 0 131 0;
#X connect 134 0 18 0;
#X restore 1675 -298 pd Melody_Sequence_thresh1;
#X obj 2024 -356 receive 4th_note;
#N canvas -8 -8 1538 803 Melody_Sequence_thresh2 0;
#X obj 1061 42 cnv 15 503 125 empty empty Sequence\ 3 20 12 0 14 #ff8000
#404040 0;
#X obj 591 43 cnv 15 468 124 empty empty Sequence\ 2 20 12 0 14 #80ff80
#404040 0;
#X obj 123 43 cnv 15 468 124 empty empty Sequence\ 1 20 12 0 14 #ff8080
#404040 0;
#X obj 1068 -263 inlet;
#X obj 1068 -238 bng 15 250 50 0 empty empty empty 17 7 0 10 #fcfcfc
#000000 #000000;
#X floatatom 1068 -138 5 0 0 0 - - -, f 5;
#X obj 138 80 sel 0;
#X obj 242 78 sel 4;
#X obj 187 79 sel 1;
#X text 146 100 C;
#X floatatom 1077 542 5 0 0 0 - - -, f 5;
#X obj 1077 569 mtof;
#X text 1133 574 < Converting MIDI Note to Frequencey;
#X floatatom 1077 594 5 0 0 0 - - -, f 5;
#X obj 1077 618 outlet;
#X obj 1068 -217 int 1;
#X obj 1132 -218 + 1;
#X obj 1068 -165 -8;
#X msg 187 126 67;
#X text 198 103 G;
#X obj 350 79 sel 8;
#X obj 596 71 sel 16;
#X obj 644 72 sel 17;
#X obj 973 75 sel 29;
#X obj 1016 76 sel 30;
#X obj 1085 75 sel 32;
#X obj 1134 74 sel 33;
#X obj 1188 73 sel 36;
#X obj 1291 79 sel 40;
#X obj 1338 75 sel 41;
#X obj 1506 75 sel 46;
#X obj 1567 41 cnv 15 420 127 empty empty Sequence\ 4 20 12 0 14 #80ffff
#404040 0;
#X obj 1591 74 sel 48;
#X obj 1640 73 sel 52;
#X obj 1687 75 sel 53;
#X obj 1739 75 sel 54;
#X obj 1799 76 sel 55;
#X obj 1847 76 sel 58;
#X obj 1900 72 sel 60;
#X obj 1947 74 sel 61;
#X obj 1068 -190 % 64;
#X obj 790 -214 loadbang;
#X obj 930 -161 bng 15 250 50 0 empty empty empty 17 7 0 10 #fcfcfc
#000000 #000000;
#X obj 921 -242 receive ON;
#X obj 925 -213 sel 0;
#X msg 137 126 72;
#X text 251 102 C;
#X msg 242 128 72;
#X msg 302 133 64;
#X text 312 109 E;
#X obj 302 79 sel 5;
#X obj 403 75 sel 9;
#X msg 354 127 67;
#X text 365 104 G;
#X msg 406 126 60;
#X text 415 100 C;
#X text 463 101 D;
#X msg 454 123 62;
#X obj 453 77 sel 11;
#X obj 500 76 sel 12;
#X obj 546 76 sel 14;
#X msg 504 124 65;
#X text 514 100 F;
#X msg 556 126 64;
#X text 566 102 E;
#X msg 596 122 64;
#X text 606 98 E;
#X text 654 99 D;
#X msg 645 121 62;
#X msg 688 121 65;
#X text 698 97 F;
#X msg 734 123 60;
#X text 743 97 C;
#X msg 773 124 67;
#X text 784 101 G;
#X msg 814 126 69;
#X text 826 98 A;
#X msg 856 125 67;
#X text 856 98 G;
#X msg 915 125 65;
#X text 937 101 F;
#X msg 973 125 64;
#X text 983 101 E;
#X text 1021 104 D;
#X msg 1013 125 62;
#X obj 692 72 sel 19;
#X obj 743 72 sel 20;
#X obj 792 73 sel 22;
#X obj 841 74 sel 24;
#X obj 887 75 sel 26;
#X obj 931 75 sel 28;
#X text 1095 99 C;
#X text 1200 101 C;
#X msg 1086 125 60;
#X msg 1191 127 60;
#X msg 1136 127 65;
#X text 1146 103 F;
#X msg 1237 129 69;
#X text 1249 101 A;
#X msg 1284 130 65;
#X text 1294 106 F;
#X text 1349 110 C;
#X msg 1340 136 72;
#X msg 1395 135 64;
#X text 1405 111 E;
#X msg 1453 135 67;
#X text 1464 112 G;
#X msg 1494 137 69;
#X text 1506 109 A;
#X obj 1244 76 sel 37;
#X obj 1396 75 sel 43;
#X obj 1454 74 sel 44;
#X msg 1586 129 64;
#X text 1596 105 E;
#X text 1644 103 C;
#X msg 1635 129 60;
#X msg 1686 128 67;
#X text 1697 105 G;
#X msg 1732 134 69;
#X text 1744 106 A;
#X text 1791 108 C;
#X msg 1782 134 60;
#X text 1836 110 D;
#X msg 1828 131 62;
#X msg 1878 132 64;
#X text 1888 108 E;
#X text 1931 107 C;
#X msg 1922 133 60;
#X msg 978 -150 -1;
#X connect 3 0 4 0;
#X connect 4 0 15 0;
#X connect 5 0 6 0;
#X connect 5 0 8 0;
#X connect 5 0 7 0;
#X connect 5 0 20 0;
#X connect 5 0 21 0;
#X connect 5 0 24 0;
#X connect 5 0 23 0;
#X connect 5 0 22 0;
#X connect 5 0 25 0;
#X connect 5 0 30 0;
#X connect 5 0 29 0;
#X connect 5 0 28 0;
#X connect 5 0 27 0;
#X connect 5 0 26 0;
#X connect 5 0 32 0;
#X connect 5 0 39 0;
#X connect 5 0 38 0;
#X connect 5 0 37 0;
#X connect 5 0 36 0;
#X connect 5 0 35 0;
#X connect 5 0 34 0;
#X connect 5 0 33 0;
#X connect 5 0 50 0;
#X connect 5 0 51 0;
#X connect 5 0 58 0;
#X connect 5 0 59 0;
#X connect 5 0 85 0;
#X connect 5 0 86 0;
#X connect 5 0 87 0;
#X connect 5 0 88 0;
#X connect 5 0 89 0;
#X connect 5 0 109 0;
#X connect 5 0 110 0;
#X connect 5 0 111 0;
#X connect 6 0 45 0;
#X connect 7 0 47 0;
#X connect 8 0 18 0;
#X connect 10 0 11 0;
#X connect 11 0 13 0;
#X connect 13 0 14 0;
#X connect 15 0 16 0;
#X connect 15 0 40 0;
#X connect 16 0 15 1;
#X connect 17 0 5 0;
#X connect 18 0 10 0;
#X connect 20 0 52 0;
#X connect 21 0 65 0;
#X connect 22 0 68 0;
#X connect 23 0 81 0;
#X connect 24 0 84 0;
#X connect 25 0 93 0;
#X connect 26 0 95 0;
#X connect 27 0 94 0;
#X connect 28 0 99 0;
#X connect 29 0 102 0;
#X connect 30 0 107 0;
#X connect 32 0 112 0;
#X connect 33 0 115 0;
#X connect 34 0 116 0;
#X connect 35 0 118 0;
#X connect 36 0 121 0;
#X connect 37 0 123 0;
#X connect 38 0 124 0;
#X connect 39 0 127 0;
#X connect 40 0 17 0;
#X connect 41 0 42 0;
#X connect 42 0 128 0;
#X connect 43 0 44 0;
#X connect 44 0 42 0;
#X connect 45 0 10 0;
#X connect 47 0 10 0;
#X connect 48 0 10 0;
#X connect 50 0 48 0;
#X connect 51 0 54 0;
#X connect 52 0 10 0;
#X connect 54 0 10 0;
#X connect 57 0 10 0;
#X connect 58 0 57 0;
#X connect 59 0 61 0;
#X connect 60 0 63 0;
#X connect 61 0 10 0;
#X connect 63 0 10 0;
#X connect 65 0 10 0;
#X connect 68 0 10 0;
#X connect 69 0 10 0;
#X connect 71 0 10 0;
#X connect 73 0 10 0;
#X connect 75 0 10 0;
#X connect 77 0 10 0;
#X connect 79 0 10 0;
#X connect 81 0 10 0;
#X connect 84 0 10 0;
#X connect 85 0 69 0;
#X connect 86 0 71 0;
#X connect 87 0 73 0;
#X connect 88 0 75 0;
#X connect 89 0 77 0;
#X connect 90 0 79 0;
#X connect 93 0 10 0;
#X connect 94 0 10 0;
#X connect 95 0 10 0;
#X connect 97 0 10 0;
#X connect 99 0 10 0;
#X connect 102 0 10 0;
#X connect 103 0 10 0;
#X connect 105 0 10 0;
#X connect 107 0 10 0;
#X connect 109 0 97 0;
#X connect 110 0 103 0;
#X connect 111 0 105 0;
#X connect 112 0 10 0;
#X connect 115 0 10 0;
#X connect 116 0 10 0;
#X connect 118 0 10 0;
#X connect 121 0 10 0;
#X connect 123 0 10 0;
#X connect 124 0 10 0;
#X connect 127 0 10 0;
#X connect 128 0 15 0;
#X restore 1849 -298 pd Melody_Sequence_thresh2;
#N canvas 0 0 1538 795 Melody_Sequence_thresh3 0;
#X obj 903 44 cnv 15 248 119 empty empty Sequence\ 3 20 12 0 14 #ff8000
#404040 0;
#X obj 591 43 cnv 15 310 119 empty empty Sequence\ 2 20 12 0 14 #80ff80
#404040 0;
#X obj 342 43 cnv 15 247 119 empty empty Sequence\ 1 20 12 0 14 #ff8080
#404040 0;
#X obj 1068 -263 inlet;
#X obj 1068 -238 bng 15 250 50 0 empty empty empty 17 7 0 10 #fcfcfc
#000000 #000000;
#X floatatom 1068 -138 5 0 0 0 - - -, f 5;
#X obj 364 80 sel 0;
#X obj 423 79 sel 4;
#X floatatom 1077 542 5 0 0 0 - - -, f 5;
#X obj 1077 569 mtof;
#X text 1133 574 < Converting MIDI Note to Frequencey;
#X floatatom 1077 594 5 0 0 0 - - -, f 5;
#X obj 1077 618 outlet;
#X obj 1068 -217 int 1;
#X obj 1132 -218 + 1;
#X obj 1068 -165 -8;
#X obj 474 78 sel 8;
#X obj 610 78 sel 16;
#X obj 767 82 sel 24;
#X obj 839 86 sel 30;
#X obj 927 77 sel 32;
#X obj 980 77 sel 36;
#X obj 1043 80 sel 40;
#X obj 1101 79 sel 46;
#X obj 1154 44 cnv 15 221 119 empty empty Sequence\ 4 20 12 0 14 #80ffff
#404040 0;
#X obj 1171 74 sel 54;
#X obj 1278 76 sel 58;
#X obj 1331 72 sel 60;
#X obj 1068 -190 % 64;
#X obj 790 -214 loadbang;
#X obj 930 -161 bng 15 250 50 0 empty empty empty 17 7 0 10 #fcfcfc
#000000 #000000;
#X obj 921 -242 receive ON;
#X obj 925 -213 sel 0;
#X msg 978 -150 -1;
#X msg 362 131 64;
#X text 372 107 E;
#X msg 414 124 60;
#X text 423 98 C;
#X text 472 106 D;
#X msg 463 128 62;
#X msg 511 129 67;
#X text 522 106 G;
#X msg 620 128 64;
#X text 630 104 E;
#X msg 699 129 67;
#X text 710 106 G;
#X msg 775 134 65;
#X text 784 113 F;
#X text 847 113 D;
#X msg 838 135 62;
#X text 934 105 C;
#X msg 924 129 72;
#X msg 982 130 64;
#X text 992 106 E;
#X msg 1044 133 65;
#X text 1053 112 F;
#X msg 1098 133 60;
#X text 1107 107 C;
#X text 1187 103 D;
#X msg 1178 125 62;
#X msg 1225 133 64;
#X text 1235 109 E;
#X msg 1287 136 65;
#X text 1296 115 F;
#X msg 1344 131 64;
#X text 1354 107 E;
#X obj 533 81 sel 14;
#X obj 695 79 sel 20;
#X obj 1230 75 sel 56;
#X connect 3 0 4 0;
#X connect 4 0 13 0;
#X connect 5 0 6 0;
#X connect 5 0 7 0;
#X connect 5 0 16 0;
#X connect 5 0 17 0;
#X connect 5 0 19 0;
#X connect 5 0 18 0;
#X connect 5 0 20 0;
#X connect 5 0 23 0;
#X connect 5 0 22 0;
#X connect 5 0 21 0;
#X connect 5 0 27 0;
#X connect 5 0 26 0;
#X connect 5 0 25 0;
#X connect 5 0 66 0;
#X connect 5 0 67 0;
#X connect 5 0 68 0;
#X connect 6 0 34 0;
#X connect 7 0 36 0;
#X connect 8 0 9 0;
#X connect 9 0 11 0;
#X connect 11 0 12 0;
#X connect 13 0 14 0;
#X connect 13 0 28 0;
#X connect 14 0 13 1;
#X connect 15 0 5 0;
#X connect 16 0 39 0;
#X connect 17 0 42 0;
#X connect 18 0 46 0;
#X connect 19 0 49 0;
#X connect 20 0 51 0;
#X connect 21 0 52 0;
#X connect 22 0 54 0;
#X connect 23 0 56 0;
#X connect 25 0 59 0;
#X connect 26 0 62 0;
#X connect 27 0 64 0;
#X connect 28 0 15 0;
#X connect 29 0 30 0;
#X connect 30 0 33 0;
#X connect 31 0 32 0;
#X connect 32 0 30 0;
#X connect 33 0 13 0;
#X connect 34 0 8 0;
#X connect 36 0 8 0;
#X connect 39 0 8 0;
#X connect 40 0 8 0;
#X connect 42 0 8 0;
#X connect 44 0 8 0;
#X connect 46 0 8 0;
#X connect 49 0 8 0;
#X connect 51 0 8 0;
#X connect 52 0 8 0;
#X connect 54 0 8 0;
#X connect 56 0 8 0;
#X connect 59 0 8 0;
#X connect 60 0 8 0;
#X connect 62 0 8 0;
#X connect 64 0 8 0;
#X connect 66 0 40 0;
#X connect 67 0 44 0;
#X connect 68 0 60 0;
#X restore 2021 -298 pd Melody_Sequence_thresh3;
#N canvas 0 0 1538 762 Melody_Sequence_thresh4 0;
#X obj 1061 42 cnv 15 437 126 empty empty Sequence\ 3 20 12 0 14 #ff8000
#404040 0;
#X obj 591 43 cnv 15 468 124 empty empty Sequence\ 2 20 12 0 14 #80ff80
#404040 0;
#X obj 123 43 cnv 15 468 124 empty empty Sequence\ 1 20 12 0 14 #ff8080
#404040 0;
#X obj 1068 -263 inlet;
#X obj 1068 -238 bng 15 250 50 0 empty empty empty 17 7 0 10 #fcfcfc
#000000 #000000;
#X floatatom 1068 -138 5 0 0 0 - - -, f 5;
#X obj 199 75 sel 0;
#X obj 309 76 sel 6;
#X obj 252 75 sel 2;
#X floatatom 1077 542 5 0 0 0 - - -, f 5;
#X obj 1077 569 mtof;
#X text 1133 574 < Converting MIDI Note to Frequencey;
#X floatatom 1077 594 5 0 0 0 - - -, f 5;
#X obj 1077 618 outlet;
#X obj 1068 -217 int 1;
#X obj 1132 -218 + 1;
#X obj 1068 -165 -8;
#X obj 365 75 sel 8;
#X obj 420 73 sel 12;
#X obj 767 72 sel 24;
#X obj 825 74 sel 29;
#X obj 880 73 sel 30;
#X obj 1186 74 sel 32;
#X obj 1237 74 sel 36;
#X obj 1297 73 sel 40;
#X obj 1408 74 sel 46;
#X obj 1501 44 cnv 15 318 126 empty empty Sequence\ 4 20 12 0 14 #80ffff
#404040 0;
#X obj 1614 72 sel 52;
#X obj 1742 75 sel 60;
#X obj 1068 -190 % 64;
#X obj 790 -214 loadbang;
#X obj 930 -161 bng 15 250 50 0 empty empty empty 17 7 0 10 #fcfcfc
#000000 #000000;
#X obj 921 -242 receive ON;
#X obj 925 -213 sel 0;
#X msg 978 -150 -1;
#X msg 202 131 65;
#X text 212 106 F;
#X msg 254 133 64;
#X text 264 108 E;
#X msg 304 136 67;
#X text 315 112 G;
#X msg 346 136 67;
#X text 357 112 G;
#X msg 393 137 69;
#X text 405 108 A;
#X msg 452 134 65;
#X text 462 110 F;
#X obj 494 72 sel 14;
#X obj 705 71 sel 20;
#X msg 711 138 64;
#X text 721 113 E;
#X msg 757 140 65;
#X text 767 115 F;
#X msg 860 140 67;
#X text 871 116 G;
#X msg 806 142 69;
#X text 818 113 A;
#X msg 1232 125 64;
#X text 1242 101 E;
#X text 1297 102 D;
#X msg 1288 124 62;
#X text 1190 103 C;
#X msg 1181 124 60;
#X msg 1338 125 65;
#X text 1347 104 F;
#X text 1398 102 D;
#X msg 1389 124 62;
#X obj 1356 73 sel 44;
#X msg 1686 137 69;
#X text 1698 108 A;
#X text 1743 116 D;
#X msg 1734 138 62;
#X msg 1641 134 67;
#X text 1652 110 G;
#X obj 1679 75 sel 56;
#X connect 3 0 4 0;
#X connect 4 0 14 0;
#X connect 5 0 6 0;
#X connect 5 0 8 0;
#X connect 5 0 7 0;
#X connect 5 0 17 0;
#X connect 5 0 18 0;
#X connect 5 0 21 0;
#X connect 5 0 20 0;
#X connect 5 0 19 0;
#X connect 5 0 22 0;
#X connect 5 0 25 0;
#X connect 5 0 24 0;
#X connect 5 0 23 0;
#X connect 5 0 27 0;
#X connect 5 0 47 0;
#X connect 5 0 48 0;
#X connect 5 0 67 0;
#X connect 5 0 28 0;
#X connect 5 0 74 0;
#X connect 6 0 35 0;
#X connect 7 0 39 0;
#X connect 8 0 37 0;
#X connect 9 0 10 0;
#X connect 10 0 12 0;
#X connect 12 0 13 0;
#X connect 14 0 15 0;
#X connect 14 0 29 0;
#X connect 15 0 14 1;
#X connect 16 0 5 0;
#X connect 17 0 41 0;
#X connect 18 0 43 0;
#X connect 19 0 51 0;
#X connect 20 0 55 0;
#X connect 21 0 53 0;
#X connect 22 0 62 0;
#X connect 23 0 57 0;
#X connect 24 0 60 0;
#X connect 25 0 66 0;
#X connect 27 0 72 0;
#X connect 28 0 71 0;
#X connect 29 0 16 0;
#X connect 30 0 31 0;
#X connect 31 0 34 0;
#X connect 32 0 33 0;
#X connect 33 0 31 0;
#X connect 34 0 14 0;
#X connect 35 0 9 0;
#X connect 37 0 9 0;
#X connect 39 0 9 0;
#X connect 41 0 9 0;
#X connect 43 0 9 0;
#X connect 45 0 9 0;
#X connect 47 0 45 0;
#X connect 48 0 49 0;
#X connect 49 0 9 0;
#X connect 51 0 9 0;
#X connect 53 0 9 0;
#X connect 55 0 9 0;
#X connect 57 0 9 0;
#X connect 60 0 9 0;
#X connect 62 0 9 0;
#X connect 63 0 9 0;
#X connect 66 0 9 0;
#X connect 67 0 63 0;
#X connect 68 0 9 0;
#X connect 71 0 9 0;
#X connect 72 0 9 0;
#X connect 74 0 68 0;
#X restore 2192 -298 pd Melody_Sequence_thresh4;
#X text 903 -425 Heartrate;
#X msg 843 -364 60;
#X obj 1544 -327 receive SongVolume1;
#X floatatom 1544 -303 5 0 0 0 - - -, f 5;
#X obj 1675 -272 KarplusStrongPluckedString;
#X obj 1849 -272 KarplusStrongPluckedString;
#X obj 2021 -272 KarplusStrongPluckedString;
#X obj 2192 -273 KarplusStrongPluckedString;
#X obj 1675 -250 *~ 1;
#X obj 1849 -251 *~ 1;
#X obj 2021 -251 *~ 1;
#X obj 2192 -252 *~ 1;
#X floatatom 1542 -257 5 0 0 0 - - -, f 5;
#X floatatom 1542 -210 5 0 0 0 - - -, f 5;
#X floatatom 1542 -165 5 0 0 0 - - -, f 5;
#X obj 1542 -281 receive SongVolume2;
#X obj 1542 -234 receive SongVolume3;
#X obj 1542 -189 receive SongVolume4;
#X obj 1405 -381 vsl 15 128 0 1 0 1 empty empty empty 0 -9 0 10 #fcfcfc
#000000 #000000 0 1;
#X obj 1429 -380 vsl 15 128 0 1 0 1 empty empty empty 0 -9 0 10 #fcfcfc
#000000 #000000 0 1;
#X obj 1454 -380 vsl 15 128 0 1 0 1 empty empty empty 0 -9 0 10 #fcfcfc
#000000 #000000 0 1;
#X obj 1479 -379 vsl 15 128 0 1 0 1 empty empty empty 0 -9 0 10 #fcfcfc
#000000 #000000 0 1;
#X connect 7 0 8 0;
#X connect 9 0 10 0;
#X connect 10 0 104 0;
#X connect 11 0 159 0;
#X connect 12 0 13 0;
#X connect 12 0 104 1;
#X connect 13 0 104 0;
#X connect 14 0 15 0;
#X connect 16 0 17 0;
#X connect 17 0 20 0;
#X connect 18 0 17 0;
#X connect 20 0 22 0;
#X connect 21 0 22 0;
#X connect 22 0 23 0;
#X connect 22 0 24 0;
#X connect 23 0 25 0;
#X connect 24 0 22 1;
#X connect 25 0 26 0;
#X connect 26 0 27 0;
#X connect 27 0 28 0;
#X connect 28 0 32 0;
#X connect 29 0 31 0;
#X connect 30 0 31 0;
#X connect 31 0 32 0;
#X connect 32 0 36 0;
#X connect 33 0 16 0;
#X connect 34 0 21 0;
#X connect 35 0 29 0;
#X connect 37 0 38 0;
#X connect 38 0 40 0;
#X connect 38 0 39 1;
#X connect 39 0 41 0;
#X connect 41 0 42 0;
#X connect 43 0 45 0;
#X connect 43 0 44 1;
#X connect 44 0 46 0;
#X connect 46 0 47 0;
#X connect 48 0 43 0;
#X connect 49 0 39 0;
#X connect 50 0 37 0;
#X connect 51 0 44 0;
#X connect 52 0 48 0;
#X connect 53 0 54 0;
#X connect 54 0 55 0;
#X connect 55 0 56 0;
#X connect 55 1 57 0;
#X connect 56 0 58 0;
#X connect 57 0 59 0;
#X connect 58 0 62 0;
#X connect 59 0 62 0;
#X connect 62 0 63 0;
#X connect 63 0 64 0;
#X connect 64 0 65 0;
#X connect 65 0 66 0;
#X connect 67 0 69 0;
#X connect 68 0 67 0;
#X connect 69 0 70 0;
#X connect 70 0 71 0;
#X connect 71 0 65 1;
#X connect 72 0 71 0;
#X connect 73 0 72 0;
#X connect 74 0 75 0;
#X connect 75 0 76 0;
#X connect 76 0 77 0;
#X connect 77 0 73 1;
#X connect 78 0 79 0;
#X connect 79 0 80 0;
#X connect 80 0 72 0;
#X connect 81 0 82 0;
#X connect 81 0 91 0;
#X connect 82 0 103 0;
#X connect 83 0 84 0;
#X connect 83 0 89 0;
#X connect 84 0 85 0;
#X connect 85 0 86 0;
#X connect 86 0 87 0;
#X connect 87 0 102 0;
#X connect 88 0 85 0;
#X connect 89 0 90 0;
#X connect 90 0 88 0;
#X connect 91 0 92 0;
#X connect 91 0 93 0;
#X connect 92 0 95 0;
#X connect 93 0 94 0;
#X connect 94 0 86 1;
#X connect 95 0 94 0;
#X connect 96 0 95 0;
#X connect 97 0 98 0;
#X connect 98 0 99 0;
#X connect 99 0 92 1;
#X connect 100 0 101 0;
#X connect 101 0 96 0;
#X connect 103 0 83 0;
#X connect 104 0 14 0;
#X connect 105 0 112 0;
#X connect 106 0 122 0;
#X connect 107 0 110 0;
#X connect 108 0 110 1;
#X connect 109 0 159 0;
#X connect 111 0 107 0;
#X connect 111 1 108 0;
#X connect 112 0 113 0;
#X connect 113 0 107 0;
#X connect 113 0 108 0;
#X connect 114 0 116 0;
#X connect 115 0 114 0;
#X connect 116 0 113 1;
#X connect 117 0 120 0;
#X connect 120 0 111 0;
#X connect 121 0 153 0;
#X connect 121 0 155 0;
#X connect 121 0 156 0;
#X connect 121 0 157 0;
#X connect 122 0 111 1;
#X connect 123 0 125 0;
#X connect 125 0 108 1;
#X connect 125 0 107 1;
#X connect 126 0 108 0;
#X connect 126 0 107 0;
#X connect 127 0 126 0;
#X connect 127 1 131 0;
#X connect 128 0 130 0;
#X connect 130 0 127 0;
#X connect 131 0 108 0;
#X connect 131 0 107 0;
#X connect 132 0 127 1;
#X connect 133 0 134 0;
#X connect 134 0 135 0;
#X connect 135 0 12 0;
#X connect 136 0 137 0;
#X connect 137 0 138 0;
#X connect 138 0 139 0;
#X connect 139 0 125 0;
#X connect 141 0 142 0;
#X connect 142 0 127 2;
#X connect 143 0 144 0;
#X connect 144 0 111 2;
#X connect 145 0 146 0;
#X connect 146 0 111 3;
#X connect 147 0 148 0;
#X connect 148 0 127 3;
#X connect 153 0 162 0;
#X connect 154 0 121 0;
#X connect 155 0 163 0;
#X connect 156 0 164 0;
#X connect 157 0 165 0;
#X connect 159 0 12 0;
#X connect 160 0 161 0;
#X connect 161 0 166 1;
#X connect 162 0 166 0;
#X connect 163 0 167 0;
#X connect 164 0 168 0;
#X connect 165 0 169 0;
#X connect 166 0 132 0;
#X connect 167 0 132 0;
#X connect 168 0 132 0;
#X connect 169 0 132 0;
#X connect 170 0 167 1;
#X connect 171 0 168 1;
#X connect 172 0 169 1;
#X connect 173 0 170 0;
#X connect 174 0 171 0;
#X connect 175 0 172 0;
#X connect 176 0 161 0;
#X connect 177 0 170 0;
#X connect 178 0 171 0;
#X connect 179 0 172 0;
