#N canvas -8 -8 1554 778 10;
#X obj 129 183 osc~ 600;
#X obj 219 184 osc~ 606;
#X obj 101 351 *~ 0.1;
#X obj 193 355 *~ 0.1;
#X floatatom 256 119 5 0 0 0 - - -, f 5;
#X floatatom 125 63 5 0 0 0 - - -, f 5;
#X obj 224 149 + 6;
#X floatatom 254 307 5 0 0 0 - - -, f 5;
#X text 296 306 Volume;
#X text 292 118 Entrainment freq;
#X text 165 65 Base freq;
#X text 134 32 Binaural Beats;
#X obj 597 775 osc~ 396;
#X obj 660 774 osc~ 417;
#X obj 720 775 osc~ 528;
#X obj 783 771 osc~ 639;
#X obj 844 768 osc~ 741;
#X obj 907 767 osc~ 852;
#X obj 598 876 *~ 0;
#X obj 102 391 throw~ left;
#X obj 201 391 throw~ right;
#X obj 83 955 catch~ left;
#X obj 213 955 catch~ right;
#X obj 160 1033 dac~;
#X obj 689 998 throw~ left;
#X obj 780 999 throw~ right;
#X msg 240 264 0.1;
#X msg 296 263 0;
#X obj 661 877 *~ 0;
#X obj 722 877 *~ 0;
#X obj 785 875 *~ 0;
#X obj 844 878 *~ 0;
#X obj 907 876 *~ 0;
#X obj 616 834 r env1;
#X obj 680 839 r env2;
#X obj 742 844 r env3;
#X obj 805 839 r env4;
#X obj 863 843 r env5;
#X obj 928 845 r env6;
#X obj 615 153 tgl 15 0 empty empty empty 17 7 0 10 #fcfcfc #000000
#000000 0 1;
#X obj 614 194 metro 4000;
#X obj 616 241 bng 15 250 50 0 empty empty empty 17 7 0 10 #fcfcfc
#000000 #000000;
#X obj 616 275 random 6;
#X floatatom 616 312 5 0 0 0 - - -, f 5;
#X obj 615 352 sel 0 1 2 3 4 5, f 117;
#X obj 614 393 bng 15 250 50 0 empty empty empty 17 7 0 10 #fcfcfc
#000000 #000000;
#X obj 615 516 line 0 1;
#X msg 614 447 0.2 10;
#X obj 661 426 delay 20;
#X obj 662 474 0 4000;
#X obj 616 576 s env1;
#X obj 732 397 bng 15 250 50 0 empty empty empty 17 7 0 10 #fcfcfc
#000000 #000000;
#X obj 733 520 line 0 1;
#X msg 732 451 0.2 10;
#X obj 779 430 delay 20;
#X obj 780 478 0 4000;
#X obj 853 398 bng 15 250 50 0 empty empty empty 17 7 0 10 #fcfcfc
#000000 #000000;
#X obj 854 521 line 0 1;
#X msg 853 452 0.2 10;
#X obj 900 431 delay 20;
#X obj 901 479 0 4000;
#X obj 734 580 s env2;
#X obj 855 581 s env3;
#X obj 965 400 bng 15 250 50 0 empty empty empty 17 7 0 10 #fcfcfc
#000000 #000000;
#X obj 966 523 line 0 1;
#X msg 965 454 0.2 10;
#X obj 1012 433 delay 20;
#X obj 1013 481 0 4000;
#X obj 1086 401 bng 15 250 50 0 empty empty empty 17 7 0 10 #fcfcfc
#000000 #000000;
#X obj 1087 524 line 0 1;
#X msg 1086 455 0.2 10;
#X obj 1133 434 delay 20;
#X obj 1134 482 0 4000;
#X obj 967 583 s env4;
#X obj 1088 584 s env5;
#X obj 1201 396 bng 15 250 50 0 empty empty empty 17 7 0 10 #fcfcfc
#000000 #000000;
#X obj 1202 519 line 0 1;
#X msg 1201 450 0.2 10;
#X obj 1248 429 delay 20;
#X obj 1249 477 0 4000;
#X obj 1203 579 s env6;
#X obj 784 212 random 6000;
#X floatatom 784 237 5 0 0 0 - - -, f 5;
#X obj 227 519 tgl 15 0 empty empty empty 17 7 0 10 #fcfcfc #000000
#000000 0 1;
#X obj 227 548 metro 4000;
#X obj 227 593 bng 15 250 50 0 empty empty empty 17 7 0 10 #fcfcfc
#000000 #000000;
#X obj 397 566 random 6000;
#X floatatom 397 591 5 0 0 0 - - -, f 5;
#X obj 104 728 noise~;
#X obj 107 790 lop~ 400;
#X obj 56 839 throw~ left;
#X obj 155 839 throw~ right;
#X obj 228 622 random 80;
#X obj 228 647 + 50;
#X floatatom 228 672 5 0 0 0 - - -, f 5;
#X obj 228 696 mtof;
#X msg 228 721 \$1 4000;
#X obj 228 746 line;
#X floatatom 228 771 12 0 0 0 - - -, f 12;
#X obj 104 753 *~ 0.05;
#X text 709 739 Solfeggio Tones;
#X text 884 118 Solfeggio Chimes;
#X text 164 490 White Noise Wave Genereator;
#X obj 112 993 *~ 0.1;
#X obj 204 997 *~ 0.1;
#X connect 0 0 2 0;
#X connect 1 0 3 0;
#X connect 2 0 19 0;
#X connect 3 0 20 0;
#X connect 4 0 6 1;
#X connect 5 0 6 0;
#X connect 5 0 0 0;
#X connect 6 0 1 0;
#X connect 7 0 3 1;
#X connect 7 0 2 1;
#X connect 12 0 18 0;
#X connect 13 0 28 0;
#X connect 14 0 29 0;
#X connect 15 0 30 0;
#X connect 16 0 31 0;
#X connect 17 0 32 0;
#X connect 18 0 24 0;
#X connect 18 0 25 0;
#X connect 21 0 103 0;
#X connect 22 0 104 0;
#X connect 26 0 7 0;
#X connect 27 0 7 0;
#X connect 28 0 24 0;
#X connect 28 0 25 0;
#X connect 29 0 24 0;
#X connect 29 0 25 0;
#X connect 30 0 24 0;
#X connect 30 0 25 0;
#X connect 31 0 24 0;
#X connect 31 0 25 0;
#X connect 32 0 24 0;
#X connect 32 0 25 0;
#X connect 33 0 18 1;
#X connect 34 0 28 1;
#X connect 35 0 29 1;
#X connect 36 0 30 1;
#X connect 37 0 31 1;
#X connect 38 0 32 1;
#X connect 39 0 40 0;
#X connect 40 0 41 0;
#X connect 40 0 81 0;
#X connect 41 0 42 0;
#X connect 42 0 43 0;
#X connect 43 0 44 0;
#X connect 44 0 45 0;
#X connect 44 1 51 0;
#X connect 44 2 56 0;
#X connect 44 3 63 0;
#X connect 44 4 68 0;
#X connect 44 5 75 0;
#X connect 45 0 47 0;
#X connect 45 0 48 0;
#X connect 46 0 50 0;
#X connect 47 0 46 0;
#X connect 48 0 49 0;
#X connect 49 0 46 0;
#X connect 51 0 53 0;
#X connect 51 0 54 0;
#X connect 52 0 61 0;
#X connect 53 0 52 0;
#X connect 54 0 55 0;
#X connect 55 0 52 0;
#X connect 56 0 58 0;
#X connect 56 0 59 0;
#X connect 57 0 62 0;
#X connect 58 0 57 0;
#X connect 59 0 60 0;
#X connect 60 0 57 0;
#X connect 63 0 65 0;
#X connect 63 0 66 0;
#X connect 64 0 73 0;
#X connect 65 0 64 0;
#X connect 66 0 67 0;
#X connect 67 0 64 0;
#X connect 68 0 70 0;
#X connect 68 0 71 0;
#X connect 69 0 74 0;
#X connect 70 0 69 0;
#X connect 71 0 72 0;
#X connect 72 0 69 0;
#X connect 75 0 77 0;
#X connect 75 0 78 0;
#X connect 76 0 80 0;
#X connect 77 0 76 0;
#X connect 78 0 79 0;
#X connect 79 0 76 0;
#X connect 81 0 40 1;
#X connect 81 0 82 0;
#X connect 83 0 84 0;
#X connect 83 0 88 0;
#X connect 84 0 85 0;
#X connect 84 0 86 0;
#X connect 85 0 92 0;
#X connect 86 0 84 1;
#X connect 86 0 87 0;
#X connect 88 0 99 0;
#X connect 89 0 90 0;
#X connect 89 0 91 0;
#X connect 92 0 93 0;
#X connect 93 0 94 0;
#X connect 94 0 95 0;
#X connect 95 0 96 0;
#X connect 96 0 97 0;
#X connect 97 0 98 0;
#X connect 98 0 89 1;
#X connect 99 0 89 0;
#X connect 103 0 23 0;
#X connect 104 0 23 1;
