#N canvas 761 0 784 769 10;
#X obj 320 177 readsf~;
#X obj 411 236 delwrite~ delayname1 1000;
#X obj 319 372 *~ 1;
#X obj 317 421 dac~;
#X obj 315 70 bng 15 250 50 0 empty empty empty 17 7 0 10 #fcfcfc #000000
#000000;
#X obj 411 329 delread~ delayname1 500;
#X floatatom 410 302 5 0 0 0 - - -, f 5;
#X msg 319 128 open clean.wav \, 1;
#X text 300 22 Comb Filter / Delay;
#X obj 228 195 vsl 15 128 0 100 0 0 empty empty empty 0 -9 0 10 #fcfcfc
#000000 #000000 10300 1;
#X text 316 496 Lowpass filter;
#X obj 292 536 bng 15 250 50 0 empty empty empty 17 7 0 10 #fcfcfc
#000000 #000000;
#X msg 292 594 open clean.wav \, 1;
#X obj 292 693 lop~;
#X obj 317 660 mtof;
#X obj 317 627 hsl 128 15 0 127 0 0 empty empty empty -2 -8 0 10 #fcfcfc
#000000 #000000 5950 1;
#X obj 293 797 dac~;
#X obj 354 769 tabwrite~ lop;
#X obj 404 735 metro 100;
#X obj 404 700 tgl 15 0 empty empty Graph\ output 17 7 0 10 #fcfcfc
#000000 #000000 1 1;
#N canvas 0 0 450 300 (subpatch) 0;
#X array lop 100 float 3 black black;
#A 0 0 0 0 0 0 0 0 0 0 0 0 0 0 0 0 0 0 0 0 0 0 0 0 0 0 0 0 0 0 0 0
0 0 0 0 0 0 0 0 0 0 0 0 0 0 0 0 0 0 0 0 0 0 0 0 0 0 0 0 0 0 0 0 0 0
0 0 0 0 0 0 0 0 0 0 0 0 0 0 0 0 0 0 0 0 0 0 0 0 0 0 0 0 0 0 0 0 0 0
0;
#X coords 0 1 100 -1 200 140 1;
#X restore 525 635 graph;
#X obj 214 639 readsf~;
#X obj 639 280 *~ 0.5;
#X obj 899 513 bng 15 250 50 0 empty empty empty 17 7 0 10 #fcfcfc
#000000 #000000;
#X msg 899 571 open clean.wav \, 1;
#X obj 924 637 mtof;
#X obj 924 604 hsl 128 15 0 127 0 0 empty empty empty -2 -8 0 10 #fcfcfc
#000000 #000000 0 1;
#X obj 900 774 dac~;
#X obj 1011 712 metro 100;
#X obj 1011 677 tgl 15 0 empty empty Graph\ output 17 7 0 10 #fcfcfc
#000000 #000000 1 1;
#X obj 821 616 readsf~;
#X text 923 473 Highpass filter;
#X obj 899 670 hip~;
#X obj 961 746 tabwrite~ hip;
#N canvas 0 0 450 300 (subpatch) 0;
#X array hip 100 float 3 black black;
#A 0 0 0 0 0 0 0 0 0 0 0 0 0 0 0 0 0 0 0 0 0 0 0 0 0 0 0 0 0 0 0 0
0 0 0 0 0 0 0 0 0 0 0 0 0 0 0 0 0 0 0 0 0 0 0 0 0 0 0 0 0 0 0 0 0 0
0 0 0 0 0 0 0 0 0 0 0 0 0 0 0 0 0 0 0 0 0 0 0 0 0 0 0 0 0 0 0 0 0 0
0;
#X coords 0 1 100 -1 200 140 1;
#X restore 1125 616 graph;
#X connect 0 0 1 0;
#X connect 0 0 2 0;
#X connect 2 0 3 0;
#X connect 2 0 3 1;
#X connect 4 0 7 0;
#X connect 5 0 2 0;
#X connect 5 0 22 0;
#X connect 6 0 5 0;
#X connect 7 0 0 0;
#X connect 9 0 6 0;
#X connect 11 0 12 0;
#X connect 12 0 21 0;
#X connect 13 0 16 0;
#X connect 13 0 16 1;
#X connect 13 0 17 0;
#X connect 14 0 13 1;
#X connect 15 0 14 0;
#X connect 18 0 17 0;
#X connect 19 0 18 0;
#X connect 21 0 13 0;
#X connect 22 0 1 0;
#X connect 23 0 24 0;
#X connect 24 0 30 0;
#X connect 25 0 32 1;
#X connect 26 0 25 0;
#X connect 28 0 33 0;
#X connect 29 0 28 0;
#X connect 30 0 32 0;
#X connect 32 0 27 0;
#X connect 32 0 27 1;
#X connect 32 0 33 0;
