#N canvas 761 0 784 777 10;
#X obj 105 88 inlet~ f1;
#X obj 205 88 inlet f2;
#X obj 305 88 inlet f3;
#X obj 105 248 delwrite~ \$0-delay 1000;
#X obj 105 288 delread~ \$0-delay 500;
#X obj 305 188 *~;
#X obj 106 388 outlet~;
#X connect 0 0 3 0;
#X connect 1 0 4 0;
#X connect 2 0 5 1;
#X connect 4 0 5 0;
#X connect 4 0 6 0;
#X connect 5 0 3 0;
