#N canvas 12 36 770 788 10;
#X obj 105 88 inlet f1;
#X obj 105 288 noise~;
#X obj 105 338 *~;
#X obj 166 206 bng 15 250 50 0 empty empty empty 17 7 0 10 #fcfcfc
#000000 #000000;
#X obj 166 236 t b b;
#X msg 166 284 0;
#X msg 212 283 1;
#X obj 166 316 tgl 15 0 empty empty empty 17 7 0 10 #fcfcfc #000000
#000000 0 1;
#X obj 105 445 *~ 0.25;
#X obj 105 480 dac~;
#X obj 105 376 delwrite~ KPdelay 1000;
#X floatatom 305 288 5 0 0 0 - - -, f 5;
#X obj 305 321 delread4~ KPdelay;
#X text 344 288 delay time / pitch;
#X obj 305 368 lop~ 5000;
#X floatatom 305 196 5 0 0 0 - - -, f 5;
#X obj 305 240 expr 1000 / $f1;
#X text 348 196 MIDI Note;
#X text 361 344 ALWAYS > 1;
#X obj 305 427 outlet~;
#X text 104 14 Original Reference: https://www.youtube.com/watch?v=5rVveOpGsWo&ab_channel=ReallyUsefulPlugins
;
#X obj 105 128 t b f;
#X obj 305 344 *~ 0.9999;
#X obj 166 260 del 40;
#X connect 0 0 21 0;
#X connect 1 0 2 0;
#X connect 2 0 10 0;
#X connect 3 0 4 0;
#X connect 4 0 23 0;
#X connect 4 1 6 0;
#X connect 5 0 7 0;
#X connect 6 0 7 0;
#X connect 7 0 2 1;
#X connect 8 0 9 0;
#X connect 8 0 9 1;
#X connect 11 0 12 0;
#X connect 12 0 22 0;
#X connect 14 0 19 0;
#X connect 14 0 10 0;
#X connect 15 0 16 0;
#X connect 16 0 11 0;
#X connect 21 0 3 0;
#X connect 21 1 15 0;
#X connect 22 0 14 0;
#X connect 23 0 5 0;
