#N canvas 761 0 784 777 10;
#X obj 205 146 readsf~;
#X obj 284 -2 bng 15 250 50 0 empty empty empty 17 7 0 10 #fcfcfc #000000
#000000;
#X msg 283 129 start;
#X msg 284 94 open clean.wav;
#X obj 207 959 dac~;
#X obj 205 313 ShroederAllPass;
#X floatatom 248 280 5 0 0 0 - - -, f 5;
#X floatatom 292 280 5 0 0 0 - - -, f 5;
#X obj 248 215 loadbang;
#X msg 248 253 347;
#X msg 292 253 0.7;
#X obj 205 439 ShroederAllPass;
#X floatatom 248 406 5 0 0 0 - - -, f 5;
#X floatatom 292 406 5 0 0 0 - - -, f 5;
#X obj 248 341 loadbang;
#X msg 292 379 0.7;
#X obj 205 566 ShroederAllPass;
#X floatatom 248 533 5 0 0 0 - - -, f 5;
#X floatatom 292 533 5 0 0 0 - - -, f 5;
#X obj 248 468 loadbang;
#X msg 292 506 0.7;
#X msg 248 379 113;
#X msg 248 506 37;
#X obj -107 786 FeedforwardCombFilter;
#X floatatom -46 756 5 0 0 0 - - -, f 5;
#X floatatom 16 756 5 0 0 0 - - -, f 5;
#X obj -46 691 loadbang;
#X obj 63 786 FeedforwardCombFilter;
#X floatatom 124 756 5 0 0 0 - - -, f 5;
#X floatatom 186 756 5 0 0 0 - - -, f 5;
#X obj 124 691 loadbang;
#X obj 234 786 FeedforwardCombFilter;
#X floatatom 295 756 5 0 0 0 - - -, f 5;
#X floatatom 357 756 5 0 0 0 - - -, f 5;
#X obj 295 691 loadbang;
#X obj 404 786 FeedforwardCombFilter;
#X floatatom 465 756 5 0 0 0 - - -, f 5;
#X floatatom 527 756 5 0 0 0 - - -, f 5;
#X obj 465 691 loadbang;
#X text -101 688 x1;
#X text 59 693 x2;
#X text 234 691 x3;
#X text 402 692 x4;
#X msg -46 729 1687;
#X msg 16 729 0.773;
#X msg 124 729 1601;
#X msg 186 729 0.802;
#X msg 295 729 2053;
#X msg 357 729 0.753;
#X msg 465 729 2251;
#X msg 527 729 0.733;
#X obj 64 848 +~;
#X obj 316 848 +~;
#X text 42 848 s1;
#X text 295 848 s2;
#X obj 64 901 +~;
#X text 31 901 outA;
#X obj 106 900 *~ -1;
#X text 147 901 outB;
#X text 345 899 outD;
#X obj 316 899 +~;
#X obj 274 900 *~ -1;
#X text 241 900 outC;
#X obj 204 182 inlet~ f1;
#X obj 135 960 outlet~ f1;
#X obj 244 959 outlet~ f2;
#X connect 1 0 3 0;
#X connect 2 0 0 0;
#X connect 3 0 0 0;
#X connect 3 0 2 0;
#X connect 5 0 11 0;
#X connect 6 0 5 1;
#X connect 7 0 5 2;
#X connect 8 0 10 0;
#X connect 8 0 9 0;
#X connect 9 0 6 0;
#X connect 10 0 7 0;
#X connect 11 0 16 0;
#X connect 12 0 11 1;
#X connect 13 0 11 2;
#X connect 14 0 15 0;
#X connect 14 0 21 0;
#X connect 15 0 13 0;
#X connect 16 0 23 0;
#X connect 16 0 27 0;
#X connect 16 0 31 0;
#X connect 16 0 35 0;
#X connect 17 0 16 1;
#X connect 18 0 16 2;
#X connect 19 0 20 0;
#X connect 19 0 22 0;
#X connect 20 0 18 0;
#X connect 21 0 12 0;
#X connect 22 0 17 0;
#X connect 23 0 51 0;
#X connect 24 0 23 1;
#X connect 25 0 23 2;
#X connect 26 0 44 0;
#X connect 26 0 43 0;
#X connect 27 0 52 0;
#X connect 28 0 27 1;
#X connect 29 0 27 2;
#X connect 30 0 46 0;
#X connect 30 0 45 0;
#X connect 31 0 51 1;
#X connect 32 0 31 1;
#X connect 33 0 31 2;
#X connect 34 0 48 0;
#X connect 34 0 47 0;
#X connect 35 0 52 1;
#X connect 36 0 35 1;
#X connect 37 0 35 2;
#X connect 38 0 50 0;
#X connect 38 0 49 0;
#X connect 43 0 24 0;
#X connect 44 0 25 0;
#X connect 45 0 28 0;
#X connect 46 0 29 0;
#X connect 47 0 32 0;
#X connect 48 0 33 0;
#X connect 49 0 36 0;
#X connect 50 0 37 0;
#X connect 51 0 55 0;
#X connect 51 0 60 1;
#X connect 52 0 55 1;
#X connect 52 0 60 0;
#X connect 55 0 57 0;
#X connect 55 0 64 0;
#X connect 57 0 65 0;
#X connect 60 0 65 0;
#X connect 61 0 64 0;
#X connect 63 0 5 0;
