#N canvas 376 2 786 766 10;
#X obj 205 146 readsf~;
#X obj 284 -2 bng 15 250 50 0 empty empty empty 17 7 0 10 #fcfcfc #000000
#000000;
#X msg 283 129 start;
#X msg 284 94 open clean.wav;
#X obj 207 1000 dac~;
#X obj 205 354 ShroederAllPass;
#X floatatom 248 280 5 0 0 0 - - -, f 5;
#X floatatom 292 280 5 0 0 0 - - -, f 5;
#X obj 248 215 loadbang;
#X msg 248 253 347;
#X msg 292 253 0.7;
#X obj 205 509 ShroederAllPass;
#X floatatom 248 458 5 0 0 0 - - -, f 5;
#X floatatom 292 458 5 0 0 0 - - -, f 5;
#X obj 248 393 loadbang;
#X msg 292 431 0.7;
#X obj 205 659 ShroederAllPass;
#X floatatom 248 603 5 0 0 0 - - -, f 5;
#X floatatom 292 603 5 0 0 0 - - -, f 5;
#X obj 248 538 loadbang;
#X msg 292 576 0.7;
#X msg 248 431 113;
#X msg 248 576 37;
#X obj -107 827 FeedforwardCombFilter;
#X floatatom -46 776 5 0 0 0 - - -, f 5;
#X floatatom 16 776 5 0 0 0 - - -, f 5;
#X obj -46 711 loadbang;
#X obj 63 827 FeedforwardCombFilter;
#X floatatom 124 776 5 0 0 0 - - -, f 5;
#X floatatom 186 776 5 0 0 0 - - -, f 5;
#X obj 124 711 loadbang;
#X obj 234 827 FeedforwardCombFilter;
#X floatatom 295 776 5 0 0 0 - - -, f 5;
#X floatatom 357 776 5 0 0 0 - - -, f 5;
#X obj 295 711 loadbang;
#X obj 404 827 FeedforwardCombFilter;
#X floatatom 465 776 5 0 0 0 - - -, f 5;
#X floatatom 527 776 5 0 0 0 - - -, f 5;
#X obj 465 711 loadbang;
#X text -101 708 x1;
#X text 59 713 x2;
#X text 234 711 x3;
#X text 402 712 x4;
#X msg -46 749 1687;
#X msg 16 749 0.773;
#X msg 124 749 1601;
#X msg 186 749 0.802;
#X msg 295 749 2053;
#X msg 357 749 0.753;
#X msg 465 749 2251;
#X msg 527 749 0.733;
#X obj 64 889 +~;
#X obj 316 889 +~;
#X text 42 889 s1;
#X text 295 889 s2;
#X obj 64 942 +~;
#X text 31 942 outA;
#X obj 106 941 *~ -1;
#X text 147 942 outB;
#X text 345 940 outD;
#X obj 316 940 +~;
#X obj 274 941 *~ -1;
#X text 241 941 outC;
#X obj 204 182 inlet~ f1;
#X obj 135 1001 outlet~ f1;
#X obj 244 1000 outlet~ f2;
#X obj 100 181 loadbang;
#X obj 55 185 tgl 15 1 empty empty empty 17 7 0 10 #fcfcfc #000000
#000000 1 1;
#X obj 7 645 lop~;
#X obj 28 581 mtof;
#X obj 28 548 hsl 128 15 0 127 0 1 empty empty empty -2 -8 0 10 #fcfcfc
#000000 #000000 6950 1;
#X floatatom 28 613 5 0 0 0 - - -, f 5;
#X obj 28 502 inlet f2;
#X obj 538 444 vsl 50 128 0 1 0 1 empty empty empty 0 -9 0 10 #fcfcfc
#000000 #000000 12700 1;
#X floatatom 538 591 5 0 0 0 - - -, f 5;
#X obj 292 305 *;
#X obj 248 305 *;
#X obj 292 483 *;
#X obj 248 483 *;
#X obj 292 632 *;
#X obj 248 632 *;
#X obj 527 801 *;
#X obj 465 801 *;
#X obj 357 801 *;
#X obj 295 801 *;
#X obj 186 801 *;
#X obj 124 801 *;
#X obj 16 801 *;
#X obj -46 801 *;
#X obj 470 546 inlet f3;
#X floatatom 248 330 5 0 0 0 - - -, f 5;
#X floatatom 292 330 5 0 0 0 - - -, f 5;
#X obj 559 69 vsl 50 128 0 1 0 1 empty empty empty 0 -9 0 10 #fcfcfc
#000000 #000000 12700 1;
#X floatatom 559 216 5 0 0 0 - - -, f 5;
#X text 559 43 Allpass;
#X text 530 419 Combfilters;
#X obj 479 151 inlet f4;
#X connect 1 0 3 0;
#X connect 2 0 0 0;
#X connect 3 0 0 0;
#X connect 3 0 2 0;
#X connect 5 0 11 0;
#X connect 6 0 76 1;
#X connect 7 0 75 1;
#X connect 8 0 10 0;
#X connect 8 0 9 0;
#X connect 9 0 6 0;
#X connect 10 0 7 0;
#X connect 11 0 16 0;
#X connect 12 0 78 1;
#X connect 13 0 77 1;
#X connect 14 0 15 0;
#X connect 14 0 21 0;
#X connect 15 0 13 0;
#X connect 16 0 68 0;
#X connect 17 0 80 1;
#X connect 18 0 79 1;
#X connect 19 0 20 0;
#X connect 19 0 22 0;
#X connect 20 0 18 0;
#X connect 21 0 12 0;
#X connect 22 0 17 0;
#X connect 23 0 51 0;
#X connect 24 0 88 1;
#X connect 25 0 87 1;
#X connect 26 0 44 0;
#X connect 26 0 43 0;
#X connect 27 0 52 0;
#X connect 28 0 86 1;
#X connect 29 0 85 1;
#X connect 30 0 46 0;
#X connect 30 0 45 0;
#X connect 31 0 51 1;
#X connect 32 0 84 1;
#X connect 33 0 83 1;
#X connect 34 0 48 0;
#X connect 34 0 47 0;
#X connect 35 0 52 1;
#X connect 36 0 82 1;
#X connect 37 0 81 1;
#X connect 38 0 50 0;
#X connect 38 0 49 0;
#X connect 43 0 24 0;
#X connect 44 0 25 0;
#X connect 45 0 28 0;
#X connect 46 0 29 0;
#X connect 47 0 32 0;
#X connect 48 0 33 0;
#X connect 49 0 36 0;
#X connect 50 0 37 0;
#X connect 51 0 55 0;
#X connect 51 0 60 1;
#X connect 52 0 55 1;
#X connect 52 0 60 0;
#X connect 55 0 57 0;
#X connect 55 0 64 0;
#X connect 57 0 65 0;
#X connect 60 0 65 0;
#X connect 61 0 64 0;
#X connect 63 0 5 0;
#X connect 66 0 5 0;
#X connect 67 0 5 0;
#X connect 68 0 23 0;
#X connect 68 0 27 0;
#X connect 68 0 31 0;
#X connect 68 0 35 0;
#X connect 69 0 71 0;
#X connect 70 0 69 0;
#X connect 71 0 68 1;
#X connect 72 0 70 0;
#X connect 73 0 74 0;
#X connect 74 0 88 0;
#X connect 74 0 87 0;
#X connect 74 0 86 0;
#X connect 74 0 85 0;
#X connect 74 0 84 0;
#X connect 74 0 83 0;
#X connect 74 0 82 0;
#X connect 74 0 81 0;
#X connect 75 0 91 0;
#X connect 76 0 90 0;
#X connect 77 0 11 2;
#X connect 78 0 11 1;
#X connect 79 0 16 2;
#X connect 80 0 16 1;
#X connect 81 0 35 2;
#X connect 82 0 35 1;
#X connect 83 0 31 2;
#X connect 84 0 31 1;
#X connect 85 0 27 2;
#X connect 86 0 27 1;
#X connect 87 0 23 2;
#X connect 88 0 23 1;
#X connect 89 0 74 0;
#X connect 90 0 5 1;
#X connect 91 0 5 2;
#X connect 92 0 93 0;
#X connect 93 0 76 0;
#X connect 93 0 75 0;
#X connect 93 0 78 0;
#X connect 93 0 77 0;
#X connect 93 0 80 0;
#X connect 93 0 79 0;
#X connect 96 0 93 0;
