#N canvas 761 0 784 777 10;
#X msg 211 388 open \$1;
#X obj 211 449 readsf~;
#X msg 266 420 start;
#X obj 205 136 t b b b;
#X obj 175 184 getdir;
#X obj 210 296 pack s s s;
#X msg 230 183 clean;
#X obj 230 225 l2s;
#X msg 295 183 .wav;
#X obj 288 225 l2s;
#X msg 210 348 symbol \$1/\$2\$3;
#X obj 204 103 tgl 15 0 empty empty empty 17 7 0 10 #fcfcfc #000000
#000000 0 1;
#X obj 241 101 loadbang;
#X obj 210 520 dac~;
#X obj 473 455 adc~;
#X obj 367 493 *~;
#X obj 408 491 *~;
#X obj 382 543 *~ 1.4;
#X connect 0 0 1 0;
#X connect 0 0 2 0;
#X connect 1 0 13 0;
#X connect 1 0 13 1;
#X connect 1 1 3 0;
#X connect 2 0 1 0;
#X connect 3 0 4 0;
#X connect 3 1 6 0;
#X connect 3 2 8 0;
#X connect 4 0 5 0;
#X connect 5 0 10 0;
#X connect 6 0 7 0;
#X connect 7 0 5 1;
#X connect 8 0 9 0;
#X connect 9 0 5 2;
#X connect 10 0 0 0;
#X connect 12 0 3 0;
#X connect 14 0 15 1;
#X connect 14 0 16 1;
#X connect 15 0 17 0;
