#N canvas -8 -8 1554 778 10;
#X obj 372 10 bng 15 250 50 0 empty empty empty 17 7 0 10 #fcfcfc #000000
#000000;
#X msg 373 52 open clean.wav \, 1;
#N canvas 0 0 1538 795 Combfilter 0;
#X obj 491 206 readsf~;
#X obj 582 265 delwrite~ delayname1 1000;
#X obj 490 401 *~ 1;
#X obj 582 358 delread~ delayname1 500;
#X floatatom 581 331 5 0 0 0 - - -, f 5;
#X obj 1043 200 vsl 15 128 0 100 0 0 empty empty empty 0 -9 0 10 #fcfcfc
#000000 #000000 4075 1;
#X obj 810 309 *~ 0.5;
#X obj 657 458 metro 100;
#X obj 657 423 tgl 15 0 empty empty Graph\ output 17 7 0 10 #fcfcfc
#000000 #000000 0 1;
#N canvas 0 0 450 300 (subpatch) 0;
#X array Comb 100 float 3 black black;
#A 0 0 0 0 0 0 0 0 0 0 0 0 0 0 0 0 0 0 0 0 0 0 0 0 0 0 0 0 0 0 0 0
0 0 0 0 0 0 0 0 0 0 0 0 0 0 0 0 0 0 0 0 0 0 0 0 0 0 0 0 0 0 0 0 0 0
0 0 0 0 0 0 0 0 0 0 0 0 0 0 0 0 0 0 0 0 0 0 0 0 0 0 0 0 0 0 0 0 0 0
0;
#X coords 0 1 100 -1 200 140 1;
#X restore 771 362 graph;
#X obj 607 492 tabwrite~ Comb;
#X obj 491 120 inlet;
#X obj 486 575 outlet~;
#X obj 1042 110 inlet;
#X connect 0 0 1 0;
#X connect 0 0 2 0;
#X connect 2 0 10 0;
#X connect 2 0 12 0;
#X connect 3 0 2 0;
#X connect 3 0 6 0;
#X connect 4 0 3 0;
#X connect 5 0 4 0;
#X connect 6 0 1 0;
#X connect 7 0 10 0;
#X connect 8 0 7 0;
#X connect 11 0 0 0;
#X connect 13 0 5 0;
#X restore 144 411 pd Combfilter;
#N canvas -8 -8 1538 795 AllPassFilter 0;
#X obj 708 480 metro 100;
#X obj 708 445 tgl 15 0 empty empty Graph\ output 17 7 0 10 #fcfcfc
#000000 #000000 0 1;
#N canvas 0 0 450 300 (subpatch) 0;
#X array alp 100 float 3 black black;
#A 0 0 0 0 0 0 0 0 0 0 0 0 0 0 0 0 0 0 0 0 0 0 0 0 0 0 0 0 0 0 0 0
0 0 0 0 0 0 0 0 0 0 0 0 0 0 0 0 0 0 0 0 0 0 0 0 0 0 0 0 0 0 0 0 0 0
0 0 0 0 0 0 0 0 0 0 0 0 0 0 0 0 0 0 0 0 0 0 0 0 0 0 0 0 0 0 0 0 0 0
0;
#X coords 0 1 100 -1 200 140 1;
#X restore 822 384 graph;
#X obj 658 514 tabwrite~ alp;
#X obj 473 386 allpass~ 100 4 0.7 0, f 22;
#X floatatom 535 340 5 0 0 0 - - -, f 5;
#X floatatom 603 323 5 0 0 0 - - -, f 5;
#X obj 603 347 / 100;
#X text 688 273 Gain;
#X text 537 262 Delay;
#X text 509 176 AllPass filter;
#X obj 475 283 inlet~;
#X obj 472 545 outlet~;
#X obj 539 287 inlet;
#X obj 684 291 inlet;
#X connect 0 0 3 0;
#X connect 1 0 0 0;
#X connect 4 0 3 0;
#X connect 4 0 12 0;
#X connect 5 0 4 1;
#X connect 6 0 7 0;
#X connect 7 0 4 2;
#X connect 11 0 4 0;
#X connect 13 0 5 0;
#X connect 14 0 6 0;
#X restore 328 599 pd AllPassFilter;
#X obj 327 820 dac~;
#X obj 1028 78 bng 15 250 50 0 empty empty empty 17 7 0 10 #fcfcfc
#000000 #000000;
#X msg 1028 161 open clean.wav \, 1;
#X obj 1028 206 readsf~;
#X obj 1038 343 dac~;
#X floatatom 220 377 5 0 0 0 - - -, f 5;
#X obj 120 248 vsl 15 128 0 50 0 0 empty empty empty 0 -9 0 10 #fcfcfc
#000000 #000000 8150 1;
#N canvas 0 0 1538 795 Combfilter 0;
#X obj 491 206 readsf~;
#X obj 582 265 delwrite~ delayname1 1000;
#X obj 490 401 *~ 1;
#X obj 582 358 delread~ delayname1 500;
#X floatatom 581 331 5 0 0 0 - - -, f 5;
#X obj 1043 200 vsl 15 128 0 100 0 0 empty empty empty 0 -9 0 10 #fcfcfc
#000000 #000000 1750 1;
#X obj 810 309 *~ 0.5;
#X obj 657 458 metro 100;
#X obj 657 423 tgl 15 0 empty empty Graph\ output 17 7 0 10 #fcfcfc
#000000 #000000 0 1;
#N canvas 0 0 450 300 (subpatch) 0;
#X array Comb 100 float 3 black black;
#A 0 0 0 0 0 0 0 0 0 0 0 0 0 0 0 0 0 0 0 0 0 0 0 0 0 0 0 0 0 0 0 0
0 0 0 0 0 0 0 0 0 0 0 0 0 0 0 0 0 0 0 0 0 0 0 0 0 0 0 0 0 0 0 0 0 0
0 0 0 0 0 0 0 0 0 0 0 0 0 0 0 0 0 0 0 0 0 0 0 0 0 0 0 0 0 0 0 0 0 0
0;
#X coords 0 1 100 -1 200 140 1;
#X restore 771 362 graph;
#X obj 607 492 tabwrite~ Comb;
#X obj 491 120 inlet;
#X obj 486 575 outlet~;
#X obj 1042 110 inlet;
#X connect 0 0 1 0;
#X connect 0 0 2 0;
#X connect 2 0 10 0;
#X connect 2 0 12 0;
#X connect 3 0 2 0;
#X connect 3 0 6 0;
#X connect 4 0 3 0;
#X connect 5 0 4 0;
#X connect 6 0 1 0;
#X connect 7 0 10 0;
#X connect 8 0 7 0;
#X connect 11 0 0 0;
#X connect 13 0 5 0;
#X restore 310 411 pd Combfilter;
#X floatatom 386 377 5 0 0 0 - - -, f 5;
#X obj 286 248 vsl 15 128 0 50 0 0 empty empty empty 0 -9 0 10 #fcfcfc
#000000 #000000 3500 1;
#N canvas 0 0 1538 795 Combfilter 0;
#X obj 491 206 readsf~;
#X obj 582 265 delwrite~ delayname1 1000;
#X obj 490 401 *~ 1;
#X obj 582 358 delread~ delayname1 500;
#X floatatom 581 331 5 0 0 0 - - -, f 5;
#X obj 1043 200 vsl 15 128 0 100 0 0 empty empty empty 0 -9 0 10 #fcfcfc
#000000 #000000 5200 1;
#X obj 810 309 *~ 0.5;
#X obj 657 458 metro 100;
#X obj 657 423 tgl 15 0 empty empty Graph\ output 17 7 0 10 #fcfcfc
#000000 #000000 0 1;
#N canvas 0 0 450 300 (subpatch) 0;
#X array Comb 100 float 3 black black;
#A 0 0 0 0 0 0 0 0 0 0 0 0 0 0 0 0 0 0 0 0 0 0 0 0 0 0 0 0 0 0 0 0
0 0 0 0 0 0 0 0 0 0 0 0 0 0 0 0 0 0 0 0 0 0 0 0 0 0 0 0 0 0 0 0 0 0
0 0 0 0 0 0 0 0 0 0 0 0 0 0 0 0 0 0 0 0 0 0 0 0 0 0 0 0 0 0 0 0 0 0
0;
#X coords 0 1 100 -1 200 140 1;
#X restore 771 362 graph;
#X obj 607 492 tabwrite~ Comb;
#X obj 491 120 inlet;
#X obj 486 575 outlet~;
#X obj 1042 110 inlet;
#X connect 0 0 1 0;
#X connect 0 0 2 0;
#X connect 2 0 10 0;
#X connect 2 0 12 0;
#X connect 3 0 2 0;
#X connect 3 0 6 0;
#X connect 4 0 3 0;
#X connect 5 0 4 0;
#X connect 6 0 1 0;
#X connect 7 0 10 0;
#X connect 8 0 7 0;
#X connect 11 0 0 0;
#X connect 13 0 5 0;
#X restore 484 411 pd Combfilter;
#X floatatom 560 377 5 0 0 0 - - -, f 5;
#X obj 496 249 vsl 15 128 0 50 0 0 empty empty empty 0 -9 0 10 #fcfcfc
#000000 #000000 10400 1;
#N canvas 0 0 1538 795 Combfilter 0;
#X obj 491 206 readsf~;
#X obj 582 265 delwrite~ delayname1 1000;
#X obj 490 401 *~ 1;
#X obj 582 358 delread~ delayname1 500;
#X floatatom 581 331 5 0 0 0 - - -, f 5;
#X obj 1043 200 vsl 15 128 0 100 0 0 empty empty empty 0 -9 0 10 #fcfcfc
#000000 #000000 2500 1;
#X obj 810 309 *~ 0.5;
#X obj 657 458 metro 100;
#X obj 657 423 tgl 15 0 empty empty Graph\ output 17 7 0 10 #fcfcfc
#000000 #000000 0 1;
#N canvas 0 0 450 300 (subpatch) 0;
#X array Comb 100 float 3 black black;
#A 0 0 0 0 0 0 0 0 0 0 0 0 0 0 0 0 0 0 0 0 0 0 0 0 0 0 0 0 0 0 0 0
0 0 0 0 0 0 0 0 0 0 0 0 0 0 0 0 0 0 0 0 0 0 0 0 0 0 0 0 0 0 0 0 0 0
0 0 0 0 0 0 0 0 0 0 0 0 0 0 0 0 0 0 0 0 0 0 0 0 0 0 0 0 0 0 0 0 0 0
0;
#X coords 0 1 100 -1 200 140 1;
#X restore 771 362 graph;
#X obj 607 492 tabwrite~ Comb;
#X obj 491 120 inlet;
#X obj 486 575 outlet~;
#X obj 1042 110 inlet;
#X connect 0 0 1 0;
#X connect 0 0 2 0;
#X connect 2 0 10 0;
#X connect 2 0 12 0;
#X connect 3 0 2 0;
#X connect 3 0 6 0;
#X connect 4 0 3 0;
#X connect 5 0 4 0;
#X connect 6 0 1 0;
#X connect 7 0 10 0;
#X connect 8 0 7 0;
#X connect 11 0 0 0;
#X connect 13 0 5 0;
#X restore 685 413 pd Combfilter;
#X floatatom 753 380 5 0 0 0 - - -, f 5;
#X obj 690 245 vsl 15 128 0 50 0 0 empty empty empty 0 -9 0 10 #fcfcfc
#000000 #000000 5000 1;
#X obj 721 522 hsl 128 15 0 127 0 0 empty empty empty -2 -8 0 10 #fcfcfc
#000000 #000000 2400 1;
#X obj 720 582 hsl 128 15 0 100 0 0 empty empty empty -2 -8 0 10 #fcfcfc
#000000 #000000 7400 1;
#X text 768 501 Delay;
#X text 771 562 Gain;
#N canvas 0 0 1538 795 AllPassFilter 0;
#X obj 708 480 metro 100;
#X obj 708 445 tgl 15 0 empty empty Graph\ output 17 7 0 10 #fcfcfc
#000000 #000000 0 1;
#N canvas 0 0 450 300 (subpatch) 0;
#X array alp 100 float 3 black black;
#A 0 0 0 0 0 0 0 0 0 0 0 0 0 0 0 0 0 0 0 0 0 0 0 0 0 0 0 0 0 0 0 0
0 0 0 0 0 0 0 0 0 0 0 0 0 0 0 0 0 0 0 0 0 0 0 0 0 0 0 0 0 0 0 0 0 0
0 0 0 0 0 0 0 0 0 0 0 0 0 0 0 0 0 0 0 0 0 0 0 0 0 0 0 0 0 0 0 0 0 0
0;
#X coords 0 1 100 -1 200 140 1;
#X restore 822 384 graph;
#X obj 658 514 tabwrite~ alp;
#X obj 473 386 allpass~ 100 4 0.7 0, f 22;
#X floatatom 535 340 5 0 0 0 - - -, f 5;
#X floatatom 603 323 5 0 0 0 - - -, f 5;
#X obj 603 347 / 100;
#X text 688 273 Gain;
#X text 537 262 Delay;
#X text 509 176 AllPass filter;
#X obj 475 283 inlet~;
#X obj 472 545 outlet~;
#X obj 539 287 inlet;
#X obj 684 291 inlet;
#X connect 0 0 3 0;
#X connect 1 0 0 0;
#X connect 4 0 3 0;
#X connect 4 0 12 0;
#X connect 5 0 4 1;
#X connect 6 0 7 0;
#X connect 7 0 4 2;
#X connect 11 0 4 0;
#X connect 13 0 5 0;
#X connect 14 0 6 0;
#X restore 329 740 pd AllPassFilter;
#X obj 718 658 hsl 128 15 0 127 0 0 empty empty empty -2 -8 0 10 #fcfcfc
#000000 #000000 9900 1;
#X obj 722 736 hsl 128 15 0 100 0 0 empty empty empty -2 -8 0 10 #fcfcfc
#000000 #000000 4100 1;
#X text 768 635 Delay;
#X text 760 714 Gain;
#X floatatom 464 555 5 0 0 0 - - -, f 5;
#X floatatom 544 582 5 0 0 0 - - -, f 5;
#X floatatom 516 680 5 0 0 0 - - -, f 5;
#X floatatom 520 748 5 0 0 0 - - -, f 5;
#X text 690 216 Delay;
#X text 288 224 Delay;
#X text 474 222 Delay;
#X text 110 219 Delay;
#X connect 0 0 1 0;
#X connect 1 0 2 0;
#X connect 1 0 11 0;
#X connect 1 0 14 0;
#X connect 1 0 17 0;
#X connect 2 0 3 0;
#X connect 3 0 24 0;
#X connect 5 0 6 0;
#X connect 6 0 7 0;
#X connect 7 0 8 0;
#X connect 7 0 8 1;
#X connect 9 0 2 1;
#X connect 10 0 9 0;
#X connect 11 0 3 0;
#X connect 12 0 11 1;
#X connect 13 0 12 0;
#X connect 14 0 3 0;
#X connect 15 0 14 1;
#X connect 16 0 15 0;
#X connect 17 0 3 0;
#X connect 18 0 17 1;
#X connect 19 0 18 0;
#X connect 20 0 29 0;
#X connect 21 0 30 0;
#X connect 24 0 4 0;
#X connect 24 0 4 1;
#X connect 25 0 31 0;
#X connect 26 0 32 0;
#X connect 29 0 3 1;
#X connect 30 0 3 2;
#X connect 31 0 24 1;
#X connect 32 0 24 2;
