#N canvas 761 0 784 777 10;
#X obj 205 106 inlet~ f1;
#X obj 286 106 inlet f2;
#X obj 368 105 inlet f3;
#X obj 205 487 outlet~;
#X obj 205 157 +~;
#X obj 205 256 delwrite~ \$0-delay 1000;
#X obj 205 289 delread~ \$0-delay 500;
#X obj 356 346 *~;
#X obj 324 157 *~ -1;
#X obj 312 201 *~;
#X connect 0 0 4 0;
#X connect 1 0 6 0;
#X connect 2 0 7 1;
#X connect 2 0 8 0;
#X connect 4 0 7 0;
#X connect 4 0 5 0;
#X connect 6 0 9 0;
#X connect 6 0 3 0;
#X connect 7 0 3 0;
#X connect 8 0 9 1;
#X connect 9 0 4 1;
