#N canvas 743 2 785 771 10;
#X obj 14 417 bng 15 250 50 0 empty empty empty 17 7 0 10 #fcfcfc #000000
#000000;
#X obj 14 448 openpanel;
#X msg 92 487 read -resize \$1 channelL channelR;
#N canvas 0 0 450 300 (subpatch) 0;
#X array channelL 590848 float 2 black black;
#X coords 0 1 590848 -1 200 140 1;
#X restore 315 392 graph;
#N canvas 0 0 450 300 (subpatch) 0;
#X array channelR 590848 float 2 black black;
#X coords 0 1 590848 -1 200 140 1;
#X restore 316 540 graph;
#X obj 92 524 soundfiler;
#X floatatom 123 557 5 0 0 0 - - -, f 5;
#X obj 123 583 s sampleSize;
#X obj 92 615 expr 44100 / $f1;
#X floatatom 122 647 5 0 0 0 - - -, f 5;
#X obj 92 677 phasor~;
#X obj 92 724 *~;
#X obj 122 707 r sampleSize;
#X obj 92 757 tabread4~ channelL;
#X obj 222 757 tabread4~ channelR;
#X obj 92 806 *~;
#X obj 137 807 *~;
#X obj 92 847 dac~ 1 2;
#X obj 352 752 vsl 30 50 0 1 0 1 empty empty empty 0 -9 0 10 #fcfcfc
#000000 #000000 4900 1;
#X msg 92 441 open \$1;
#X obj 95 189 t b b b;
#X obj 65 237 getdir;
#X obj 92 349 pack s s s;
#X obj 120 278 l2s;
#X msg 185 236 .wav;
#X obj 178 278 l2s;
#X msg 92 401 symbol \$1/\$2\$3;
#X obj 94 156 tgl 15 1 empty empty empty 17 7 0 10 #fcfcfc #000000
#000000 1 1;
#X obj 131 154 loadbang;
#X msg 120 236 clean;
#X connect 0 0 1 0;
#X connect 2 0 5 0;
#X connect 5 0 8 0;
#X connect 5 0 6 0;
#X connect 6 0 7 0;
#X connect 8 0 9 0;
#X connect 8 0 10 0;
#X connect 10 0 11 0;
#X connect 11 0 13 0;
#X connect 11 0 14 0;
#X connect 12 0 11 1;
#X connect 13 0 15 0;
#X connect 14 0 16 0;
#X connect 15 0 17 0;
#X connect 16 0 17 1;
#X connect 18 0 16 1;
#X connect 18 0 15 1;
#X connect 19 0 2 0;
#X connect 20 0 21 0;
#X connect 20 1 29 0;
#X connect 20 2 24 0;
#X connect 21 0 22 0;
#X connect 22 0 26 0;
#X connect 23 0 22 1;
#X connect 24 0 25 0;
#X connect 25 0 22 2;
#X connect 26 0 19 0;
#X connect 27 0 20 0;
#X connect 28 0 20 0;
#X connect 29 0 23 0;
