#N canvas 761 0 784 777 10;
#X obj 198 8 bng 15 250 50 0 empty empty empty 17 7 0 10 #fcfcfc #000000
#000000;
#X obj 24 279 bng 15 250 50 0 empty empty empty 17 7 0 10 #fcfcfc #000000
#000000;
#X obj 22 309 openpanel;
#X msg 21 340 open \$1;
#X obj 22 375 readsf~;
#X obj 23 422 dac~;
#X msg 103 345 start;
#X msg 204 292 open \$1;
#X obj 205 327 readsf~;
#X obj 206 374 dac~;
#X msg 286 297 start;
#X obj 198 40 t b b b;
#X obj 168 88 getdir;
#X obj 203 200 pack s s s;
#X msg 223 87 clean;
#X obj 223 129 l2s;
#X msg 288 87 .wav;
#X obj 281 129 l2s;
#X msg 118 230 \$1/\$2\$3;
#X obj 119 263 print;
#X msg 203 252 symbol \$1/\$2\$3;
#X connect 0 0 11 0;
#X connect 1 0 2 0;
#X connect 2 0 3 0;
#X connect 3 0 4 0;
#X connect 4 0 5 0;
#X connect 4 0 5 1;
#X connect 6 0 4 0;
#X connect 7 0 8 0;
#X connect 8 0 9 0;
#X connect 8 0 9 1;
#X connect 10 0 8 0;
#X connect 11 0 12 0;
#X connect 11 1 14 0;
#X connect 11 2 16 0;
#X connect 12 0 13 0;
#X connect 13 0 18 0;
#X connect 13 0 20 0;
#X connect 14 0 15 0;
#X connect 15 0 13 1;
#X connect 16 0 17 0;
#X connect 17 0 13 2;
#X connect 18 0 19 0;
#X connect 20 0 7 0;
